<?xml version="1.0" encoding="UTF-8" standalone="no"?>
<svg
   xmlns:dc="http://purl.org/dc/elements/1.1/"
   xmlns:cc="http://creativecommons.org/ns#"
   xmlns:rdf="http://www.w3.org/1999/02/22-rdf-syntax-ns#"
   xmlns:svg="http://www.w3.org/2000/svg"
   xmlns="http://www.w3.org/2000/svg"
   viewBox="0 0 656.81335 237.24001"
   height="237.24001"
   width="656.81335"
   xml:space="preserve"
   id="svg2"
   version="1.1"><metadata
     id="metadata8"><rdf:RDF><cc:Work
         rdf:about=""><dc:format>image/svg+xml</dc:format><dc:type
           rdf:resource="http://purl.org/dc/dcmitype/StillImage" /></cc:Work></rdf:RDF></metadata><defs
     id="defs6" /><g
     transform="matrix(1.3333333,0,0,-1.3333333,0,237.24)"
     id="g10"><g
       transform="scale(0.1)"
       id="g12"><path
         id="path14"
         style="fill:#e21d25;fill-opacity:1;fill-rule:evenodd;stroke:none"
         d="m 2004.23,1779.34 c 110.99,-218.52 216.06,-442.98 325.35,-663.21 164.22,217.65 329.92,447.23 494.28,661.12 46.64,-312.77 92.81,-626.02 139.73,-938.496 -67.42,0 -134.86,0 -202.3,0 -19.87,167.816 -40.29,335.096 -60.47,502.616 -20.36,-17.39 -33.36,-42.16 -50.06,-64.66 -99.55,-134.05 -204.59,-267.24 -306.58,-404.585 -12.25,-16.508 -36.28,-63.711 -54.22,-62.57 -13.65,0.859 -32.05,46.465 -39.63,62.57 -74.26,157.655 -156.9,315.895 -231.5,471.325 -65.91,-166.27 -128.51,-335.88 -191.87,-504.696 -67.44,0 -134.87,0 -202.3,0 125.3,314.756 255.18,624.936 379.57,940.586" /><path
         id="path16"
         style="fill:#231f20;fill-opacity:1;fill-rule:evenodd;stroke:none"
         d="m 3637.23,1308 c -0.46,1.63 -1.75,2.43 -4.17,2.09 -39.26,-55.98 -81.78,-108.7 -120.96,-164.77 67.44,1.4 140.42,-2.78 204.38,2.1 -27.75,52.19 -53.24,106.65 -79.25,160.58 z m 442.14,-469.246 c -68.12,0 -136.25,0 -204.37,0 -12.37,10.879 -15.65,27.195 -22.95,41.711 -19.61,39.012 -45.39,81.68 -64.65,125.135 -108.75,0 -220.41,0 -333.69,0 -16.61,0 -36.27,3.14 -45.88,0 -12.27,-4.03 -21.89,-26.768 -33.38,-41.717 -34.25,-44.57 -64.21,-82.844 -100.1,-125.129 -67.44,0 -134.87,0 -202.3,0 -9.11,3.351 3.82,9.914 4.16,10.422 42.18,62.398 94.98,122.226 141.82,183.534 149.84,196.06 305.66,398.94 456.74,594.38 1.78,0.39 1.96,-0.82 2.09,-2.09 128.96,-254.09 264.35,-508.47 394.17,-763.305 3.38,-6.632 7.83,-15.082 8.34,-22.941" /><path
         id="path18"
         style="fill:#231f20;fill-opacity:1;fill-rule:evenodd;stroke:none"
         d="m 95.9336,1579.13 c 142.1954,-6.11 306.3904,8.09 452.5664,0 131.777,-7.3 216.703,-77.78 216.906,-212.73 0.196,-135.56 -111.933,-190.08 -227.332,-218.98 0.184,-8.16 7.489,-15.05 12.512,-20.86 76.191,-88.05 160.09,-179.162 237.758,-269.037 4.527,-5.253 13.316,-10.605 12.511,-18.769 -59.109,0 -114.082,0 -175.187,0 -18.031,0 -40.973,-4.149 -56.313,0 -14.101,3.801 -48.96,50.879 -60.476,64.648 -50.695,60.586 -88.598,107.578 -141.816,171.018 -10.536,12.55 -24.868,24.74 -27.118,35.45 -4.121,19.59 3.539,47.2 6.254,68.83 2.946,23.43 8.559,45.56 8.348,64.66 88.73,1.69 185.348,10.35 216.898,70.89 14.207,27.28 17.598,75.28 2.086,110.55 -34.179,77.7 -172.945,45.38 -281.554,52.14 -30.485,-210.06 -55.153,-425.93 -83.422,-638.186 -69.516,0 -139.0394,0 -208.555,0 30.1211,245.856 62.5117,489.466 93.8516,734.106 -0.1836,2.96 -0.3438,5.91 2.082,6.27" /><path
         id="path20"
         style="fill:#231f20;fill-opacity:1;fill-rule:evenodd;stroke:none"
         d="m 1197.12,1579.13 c 74.38,0 148.77,0 223.15,0 -32.44,-245.64 -62.37,-493.78 -93.85,-740.376 -72.3,0 -144.6,0 -216.9,0 28.27,247.716 54.92,497.066 87.6,740.376" /><path
         id="path22"
         style="fill:#231f20;fill-opacity:1;fill-rule:evenodd;stroke:none"
         d="m 4926.11,1549.93 c -2.64,-46.02 -9.53,-87.79 -12.5,-133.48 -104.32,40.43 -245.59,51.51 -362.89,22.95 -104.99,-25.58 -197.8,-95.83 -210.65,-206.47 -23.86,-205.43 162.52,-294.742 364.97,-269.047 61.93,7.859 111.59,33.847 156.42,54.227 -4.65,-52.344 -13.55,-100.458 -18.77,-152.247 -298.94,-56.875 -609.87,1.414 -669.47,246.097 -37.74,154.98 28.19,268.06 112.62,339.95 87.95,74.88 208.37,110.99 358.73,118.88 100.05,5.24 192,-5.58 281.54,-20.86" /><path
         id="path24"
         style="fill:#231f20;fill-opacity:1;fill-rule:evenodd;stroke:none"
         d="m 3591.34,321.531 c -0.74,-11.761 -6.72,-18.293 -10.42,-27.109 -33.76,21.019 -102.96,13.848 -91.76,-39.633 6.96,-33.258 66.19,-39.59 81.33,-75.078 34.88,-81.6993 -75.78,-136.1602 -145.98,-89.6797 1.52,10.9887 7.09,17.9377 10.43,27.1097 37.56,-26.9222 119.59,-22.1019 106.36,41.711 -7.57,36.488 -77.2,41.98 -85.51,87.597 -11.7,64.18 63.54,107.762 135.55,75.082" /><path
         id="path26"
         style="fill:#231f20;fill-opacity:1;fill-rule:evenodd;stroke:none"
         d="m 3699.8,181.789 c 40.65,1.762 87.93,-3.109 83.42,43.801 -32.97,30.93 -78.97,-7.442 -83.42,-43.801 z m -4.17,-25.019 c -14.22,-61.7309 55.25,-65.5708 91.77,-45.891 1.95,-7.09 2.78,-15.2774 4.17,-22.9376 -26.35,-10.8711 -40.24,-17.2812 -68.82,-14.6016 -40.2,3.7813 -59.68,35.3202 -60.49,70.9102 -1.27,55.629 42.56,116.109 93.85,118.879 33.93,1.832 71.81,-22.84 56.31,-66.738 -12.72,-36.012 -63.09,-37.911 -116.79,-39.621" /><path
         id="path28"
         style="fill:#231f20;fill-opacity:1;fill-rule:evenodd;stroke:none"
         d="m 3918.78,142.172 c 1.96,-37.75 37.54,-48.4611 62.57,-29.203 29.14,22.41 34.99,76.66 43.8,118.883 -59.08,25.73 -109.1,-36.961 -106.37,-89.68 z m 139.73,108.449 c -5.04,-34.73 -13.16,-77.781 -20.85,-118.883 -7.41,-39.6677 -13.54,-80.5896 -33.37,-104.2771 -23.05,-27.5507438 -84.47,-37.832 -127.21,-14.5898 3.58,7.5195 7.24,14.9883 8.34,25.0195 15.88,-8.2187 34.16,-13.3906 52.13,-12.5117 42.66,2.082 60.22,40.8594 64.65,83.4101 0.4,1.691 2.1,2.082 2.09,4.18 -14.14,-12.668 -17.54,-22.469 -31.28,-29.1995 -59.57,-29.1484 -95.45,27.8005 -85.51,81.3395 12.89,69.391 89.53,122.981 171.01,85.512" /><path
         id="path30"
         style="fill:#231f20;fill-opacity:1;fill-rule:evenodd;stroke:none"
         d="m 4502.75,263.129 c 1.12,-12.938 -4.24,-19.41 -4.18,-31.277 -70.45,-0.602 -66.68,-93.114 -83.42,-154.3403 -9.73,0 -19.46,0 -29.2,0 7.09,63.1363 24.28,116.1603 29.2,181.4493 9.03,0 18.08,0 27.11,0 2.68,-7.641 -2.55,-23.289 -2.09,-35.449 13.67,20.398 27.34,40.789 62.58,39.617" /><path
         id="path32"
         style="fill:#231f20;fill-opacity:1;fill-rule:evenodd;stroke:none"
         d="m 4623.71,227.68 c -29.4,-20.871 -53.27,-111.258 -6.25,-127.231 44.91,-15.2381 82.48,45.93 79.24,91.77 -1.98,28.051 -19.5,46.383 -45.88,43.801 -11.1,-1.079 -20.2,-3.438 -27.11,-8.34 z m 25.03,33.371 c 48.66,5.379 79.65,-24 81.33,-70.91 2.11,-58.672 -44.24,-122.1527 -108.45,-116.8012 -81.64,6.8008 -73.47,122.0902 -27.11,164.7622 14.95,13.757 33.43,20.636 54.23,22.949" /><path
         id="path34"
         style="fill:#231f20;fill-opacity:1;fill-rule:evenodd;stroke:none"
         d="m 4924.03,254.789 c 1.22,-11.641 -6.23,-14.617 -6.26,-25.027 -22.7,13.16 -64.61,11.726 -64.65,-18.762 -0.04,-28.27 46.33,-32.238 56.31,-60.488 21.13,-59.8401 -52.95,-96.43 -110.53,-66.7425 -0.02,11.1407 5.36,16.8785 8.34,25.0195 29.94,-18.5702 80.98,-13.1171 70.9,27.121 -5.83,23.309 -45.13,27.289 -54.22,54.231 -17.64,52.269 45.2,89.968 100.11,64.648" /><path
         id="path36"
         style="fill:#231f20;fill-opacity:1;fill-rule:evenodd;stroke:none"
         d="m 4196.17,258.961 c -3.79,-26.68 -6.64,-46.461 -12.52,-77.172 -4.63,-24.269 -20.57,-74.738 10.43,-81.34 18.9,-4.0193 39.74,9.571 50.06,22.942 24.57,31.859 23.63,99.8 35.44,135.57 10.43,0 20.86,0 31.29,0 -11.21,-60.391 -23.61,-119.59 -33.37,-181.4493 -9.03,0 -18.07,0 -27.11,0 0.31,10.8086 1.52,20.7383 4.18,29.1993 -19.94,-18.961 -55.79,-44.0001 -87.6,-29.1993 -52.54,24.4493 -5.43,123.8673 -2.09,175.1873 -0.59,3.371 1.97,3.59 2.09,6.262 9.72,0 19.46,0 29.2,0" /></g></g></svg>