<?xml version="1.0" encoding="utf-8"?>
<!-- Generator: Adobe Illustrator 19.2.1, SVG Export Plug-In . SVG Version: 6.00 Build 0)  -->
<svg version="1.1" id="layer" xmlns="http://www.w3.org/2000/svg" xmlns:xlink="http://www.w3.org/1999/xlink" x="0px" y="0px"
	 viewBox="0 0 652 652" style="enable-background:new 0 0 652 652;" xml:space="preserve">
<style type="text/css">
	.st0{fill:#3C3C46;}
	.st1{fill:#FF6441;}
</style>
<path class="st0" d="M513.9,310.3l-15.5,35.5h9l3.4-7.7h18l3.4,7.7h9.5l-15.4-35.5H513.9L513.9,310.3z M513.8,331.3l6-13.7l6,13.7
	H513.8z M398.3,345.9h6.9l9.5-20v20h8.6v-35.5h-10.1l-11.3,25.8l-11.3-25.8H380v35.5h8.6v-20L398.3,345.9z M197.1,345.9h6.9l9.5-20
	v20h8.6v-35.5H212l-11.3,25.8l-11.3-25.8h-10.5v35.5h8.6v-20L197.1,345.9z M326.9,310.3v7.3h-24.7v7.2h20.6v7.1h-20.6v6.6h24.6v7.3
	H293v-35.5h33.9C326.9,310.4,326.9,310.3,326.9,310.3z M103,310.3l-15.5,35.5h9l3.4-7.7h18l3.4,7.7h9.5l-15.4-35.5
	C115.3,310.3,103,310.3,103,310.3z M102.9,331.3l6-13.7l6,13.7H102.9z M162.9,326.5h-17.3v-9.2h17.3V326.5z M136.1,310.3v35.5h9.3
	v-12h20.8c2.7,0,4.8-1.6,5.1-5.1v-13.3c0-2.9-2.5-5.2-5.5-5.2C165.7,310.3,136.1,310.3,136.1,310.3z M556.9,310.3h-9.3v35.5h31.9
	v-7.3h-22.7V310.3z M453.3,310.3v35.5h9.2v-24.5l19.6,24.5h10.1v-35.5h-9.3v24.5l-19.2-24.5H453.3L453.3,310.3z M433.8,345.9h8.9
	v-35.4h-8.9V345.9z M247.4,310.3v7.6h14.3v28h9.5v-28h14.3v-7.6H247.4L247.4,310.3z M591.2,310.3c-2.7-0.1-5.2,2.3-5.2,4.8v11.6
	c0,3,2.5,5.2,5.1,5.2h20.6v6.9h-16.4v-2.9h-9.6v4.9c0,2.7,2.4,5.2,5.2,5.2h25.1c2.5,0,5.1-1.9,5.1-5.3v-11.1
	c-0.1-3.3-2.5-5.2-5.2-5.3h-20.2v-6.6h15.9v2.3h9v-4.7c0.1-2.3-2.2-4.9-5.2-4.8h-24.1L591.2,310.3L591.2,310.3z M335.3,310.3v35.5h9
	v-13h10.4l7,13h9.6l-7.2-13h0.8c2.8-0.2,4.8-2.3,4.8-5.3v-12c0-2.9-2.5-5.2-5.5-5.2C364.3,310.3,335.3,310.3,335.3,310.3z
	 M361.7,325.7h-17.5v-8.1h17.5V325.7z"/>
<path class="st1" d="M128.2,302.7v-10l75.2-34.5v13.3L128.2,302.7z M48.8,315.3v7l116.6-58.6v-12.5L48.8,315.3z M21,347.1l64.3-26.6
	v-8.1L21,341.8V347.1z M374.1,382.1v2.2h-12.5v-20.5h2.7v18.3H374.1L374.1,382.1z M377,363.4h2.9v2.9H377V363.4z M377.1,369.1h2.5
	v15.2h-2.5C377.1,384.3,377.1,369.1,377.1,369.1z M393.8,371.2h-5.4v13.3h-2.5v-13.3h-3v-2h3v-1.2c0-2.7,1.1-5.2,5.4-5.2
	c0.8,0,1.8,0.1,2.4,0.4v2c-0.6-0.1-1.4-0.2-2.3-0.2c-1.9,0-3.1,0.8-3.1,3.1v1.2h5.4v1.9H393.8z M398.6,379.8v-8.7h-2.8v-2h2.8v-3.6
	l2.5-0.7v4.3h4.8v2h-4.8v8.7c0,2.4,1.1,2.7,2.2,2.7c1,0,2.2-0.2,2.8-0.5v2c-0.7,0.2-1.9,0.5-3.3,0.5
	C399.9,384.7,398.6,383.2,398.6,379.8L398.6,379.8z M409,363.4h2.9v2.9H409V363.4z M409.2,369.1h2.5v15.2h-2.5
	C409.2,384.3,409.2,369.1,409.2,369.1z M416.2,369.1h2.2l0.2,1.3c0,0.2,0.1,0.2,0.2,0.2c0.1,0,0.2,0,0.5-0.2c1-0.7,2.4-1.6,4.8-1.6
	c3,0,4.6,1.3,4.6,4.5v11.1h-2.5v-10.5c0-2.3-1.1-2.9-2.9-2.9c-2,0-3.7,1-4.6,1.7v11.7h-2.5V369.1z M432,386.6c0-1.7,1.2-3.1,2.7-4.2
	c-1.2-0.5-1.7-1.2-1.7-2.3c0-1,0.6-1.8,1.4-2.4c-1.2-0.8-1.9-2.3-1.9-3.9c0-3.5,1.9-5.1,6.5-5.1c0.8,0,1.6,0.1,2.4,0.2h5.4l0.2,1.4
	l-2.8,0.4c0.6,0.7,1,1.8,1,2.9c0,3.5-1.9,5.1-6.3,5.1c-1.1,0-2.2-0.1-3-0.5c-0.5,0.4-0.7,0.8-0.7,1.3c0,0.7,0.5,1,1.9,1.2l5.9,1.2
	c2.2,0.5,3.3,1.9,3.3,4c0,3.1-2.2,4.5-7.2,4.5C434.1,390.8,432,389.5,432,386.6L432,386.6z M443.7,386.5c0-1.3-0.7-2-2.3-2.4
	l-5.2-1.1c-1.1,1.1-1.8,2-1.8,3.1c0,1.8,1.4,2.7,4.6,2.7C442.4,388.7,443.7,388.1,443.7,386.5z M442.7,373.9c0-2.4-1-3.1-3.7-3.1
	c-2.9,0-4,0.8-4,3.1s1.1,3.1,3.9,3.1C441.6,376.9,442.7,376.1,442.7,373.9L442.7,373.9z M456.5,374c0-7.6,2.8-10.5,9.2-10.5
	c2.7,0,4.6,0.5,5.3,0.8v2.3c-0.7-0.2-2.7-0.8-5.2-0.8c-5.2,0-6.6,2.4-6.6,8.1c0,7,2.3,8.4,5.3,8.4c2.3,0,3.9-0.8,4.9-1.3v-5.5h-4.3
	v-2.2h6.9v11h-2l-0.2-1.1c0-0.1-0.1-0.4-0.2-0.4s-0.2,0-0.5,0.2c-0.6,0.4-2.5,1.4-4.9,1.4C459.6,384.7,456.5,382,456.5,374
	L456.5,374z M476.2,381V363h2.5v17.6c0,1.3,0.5,1.9,1.6,1.9c0.6,0,1,0,1.6-0.1v2c-0.6,0.1-1.3,0.2-2.2,0.2
	C477.6,384.7,476.2,383.4,476.2,381z M483.9,376.7c0-5.7,2.3-8,7-8s7,2.2,7,8c0,5.8-2.3,8-7,8S483.9,382.5,483.9,376.7z
	 M495.2,376.7c0-4.2-1.3-5.8-4.3-5.8c-3.1,0-4.3,1.6-4.3,5.8c0,4.2,1.2,5.8,4.3,5.8S495.2,380.9,495.2,376.7z M501.7,383.6V363h2.5
	v7.6c0.6-0.4,2.5-1.7,4.9-1.7c3.4,0,5.8,1.4,5.8,7.7c0,6.1-2.2,8.2-7.1,8.2C505,384.7,503,384,501.7,383.6z M512.3,376.6
	c0-4.3-1.2-5.5-3.7-5.5c-2.2,0-3.6,1-4.3,1.4v9.5c0.7,0.2,1.8,0.6,3.6,0.6C510.6,382.5,512.3,381.3,512.3,376.6z M518,380.4
	c0-2.7,1.3-3.6,4.8-4.6l4.7-1.4v-0.7c0-1.4-0.7-2.8-3.6-2.8c-2.2,0-3.9,0.6-4.8,1v-2.2c1.2-0.5,2.9-1,5.2-1c4,0,5.8,1.8,5.8,4.9
	v10.6h-2.2l-0.2-1.3c0-0.2-0.1-0.2-0.2-0.2s-0.2,0-0.4,0.1c-0.8,0.6-2.8,1.7-4.8,1.7C519.2,384.7,518,383.3,518,380.4L518,380.4z
	 M527.4,381.2v-4.8l-4.5,1.3c-2,0.6-2.5,1.2-2.5,2.7c0,1.6,0.6,2.3,2.3,2.3C524.5,382.6,526.2,381.8,527.4,381.2L527.4,381.2z
	 M534.3,381V363h2.5v17.6c0,1.3,0.5,1.9,1.6,1.9c0.6,0,1,0,1.6-0.1v2c-0.6,0.1-1.3,0.2-2.2,0.2C535.7,384.7,534.3,383.4,534.3,381z
	 M555.2,366h-6.5v-2.2h15.5v2.2h-6.5v18.3h-2.7V366H555.2z M564.9,369.1h2.2l0.2,1.6c0,0.2,0.1,0.4,0.2,0.4s0.2,0,0.4-0.2
	c1-0.8,2.5-1.9,4.6-1.9c0.2,0,0.6,0,0.8,0.1v2.3c-1.9-0.1-4.1,0.5-5.8,1.8v11.3H565v-15.3H564.9z M575.3,380.4
	c0-2.7,1.3-3.6,4.8-4.6l4.7-1.4v-0.7c0-1.4-0.7-2.8-3.6-2.8c-2.2,0-3.9,0.6-4.8,1v-2.2c1.2-0.5,2.9-1,5.2-1c4,0,5.8,1.8,5.8,4.9
	v10.6h-2.2L585,383c0-0.2-0.1-0.2-0.2-0.2c-0.1,0-0.2,0-0.4,0.1c-0.8,0.6-2.8,1.7-4.8,1.7C576.7,384.7,575.3,383.3,575.3,380.4
	L575.3,380.4z M584.9,381.2v-4.8l-4.5,1.3c-2,0.6-2.5,1.2-2.5,2.7c0,1.6,0.6,2.3,2.3,2.3C582,382.6,583.7,381.8,584.9,381.2
	L584.9,381.2z M591,376.7c0-5.9,2.5-8,6.6-8c1.8,0,3.1,0.4,4.1,1V363h2.5v21.3h-2.2l-0.2-1.3c0-0.1-0.1-0.2-0.2-0.2s-0.1,0-0.2,0.1
	c-0.6,0.6-2.3,1.7-4.5,1.7C593.7,384.7,591,382.8,591,376.7L591,376.7z M601.7,380.8v-9.2c-0.7-0.4-2-0.7-3.6-0.7
	c-3.1,0-4.5,1.4-4.5,5.8c0,4.3,1.6,5.8,3.9,5.8C599.3,382.5,601,381.4,601.7,380.8z M620.9,377.3h-10.2c0.1,3.7,1.6,5.1,4.7,5.1
	c2.3,0,4.1-0.7,5.2-1.2v2.3c-1,0.5-2.7,1.1-5.3,1.1c-5.1,0-7-2.7-7-8.3c0-5.5,2.3-7.5,6.6-7.5c4.2,0,6.1,2.2,6.1,6.4
	C621,375.1,620.9,377.3,620.9,377.3z M618.5,374.7c0-2.5-1.2-3.7-3.9-3.7c-2.8,0-4,1.1-4.1,4.6h7.8v-0.8
	C618.3,374.7,618.5,374.7,618.5,374.7z"/>
</svg>
