<?xml version="1.0" standalone="no"?>
<!DOCTYPE svg PUBLIC "-//W3C//DTD SVG 20010904//EN"
 "http://www.w3.org/TR/2001/REC-SVG-20010904/DTD/svg10.dtd">
<svg version="1.0" xmlns="http://www.w3.org/2000/svg"
 width="1810.000000pt" height="503.000000pt" viewBox="0 0 1810.000000 503.000000"
 preserveAspectRatio="xMidYMid meet">

<g transform="translate(0.000000,503.000000) scale(0.100000,-0.100000)"
fill="#000000" stroke="none">
<path d="M740 4989 c-168 -45 -320 -136 -450 -269 -98 -99 -167 -208 -216
-339 -68 -179 -65 -92 -62 -1907 l3 -1639 22 -77 c54 -188 129 -322 253 -448
133 -136 286 -226 463 -273 l82 -22 8225 0 8225 0 89 28 c164 51 290 124 407
234 132 125 235 298 281 473 l23 85 0 1680 0 1680 -23 85 c-28 106 -98 254
-162 340 -54 73 -150 167 -226 222 -73 54 -227 125 -318 148 -79 20 -104 20
-8310 19 -8213 0 -8231 0 -8306 -20z m8617 -973 c81 -22 138 -57 138 -85 0
-20 -9 -27 -51 -40 -112 -37 -216 -128 -290 -254 -54 -93 -90 -133 -137 -156
-73 -35 -111 -26 -119 29 -3 24 -7 25 -82 30 l-79 5 42 41 c25 25 71 55 116
75 l75 33 -28 18 c-15 10 -53 23 -84 29 -32 6 -55 15 -52 20 8 14 135 49 205
57 59 7 62 9 41 21 -13 7 -48 15 -78 18 -30 3 -54 9 -54 13 0 3 23 17 52 31
44 20 67 24 154 24 115 0 119 7 31 52 -70 35 -48 50 78 52 39 0 93 -5 122 -13z
m173 -212 c0 -3 -14 -26 -31 -50 -73 -106 -109 -254 -89 -365 23 -123 91 -213
257 -336 219 -162 293 -323 249 -544 -65 -326 -275 -738 -570 -1119 -85 -109
-371 -409 -381 -399 -3 4 4 28 15 54 54 125 65 198 64 405 -2 207 -12 288 -83
615 -49 230 -65 364 -65 545 1 351 91 653 279 936 100 149 173 213 290 250 45
14 65 17 65 8z m70 -123 c0 -47 27 -120 65 -175 29 -43 36 -61 33 -91 -2 -21
-10 -42 -19 -48 -50 -32 -155 44 -179 129 -12 42 -11 54 9 123 27 90 45 115
72 100 12 -6 19 -21 19 -38z m-7525 -451 c97 -14 169 -45 218 -94 69 -68 108
-178 110 -309 l2 -82 -188 0 -188 0 -22 55 c-31 79 -66 94 -212 94 -126 0
-181 -13 -229 -54 -55 -49 -61 -88 -61 -400 0 -241 2 -282 18 -328 34 -95 112
-128 286 -120 149 7 182 33 208 159 20 97 19 98 -125 101 l-117 3 0 145 0 145
315 0 315 0 0 -250 c0 -207 -3 -264 -19 -330 -44 -192 -113 -262 -297 -302
-121 -26 -487 -26 -608 0 -218 47 -323 161 -357 389 -22 146 -15 741 10 837
70 270 268 368 716 356 80 -2 181 -9 225 -15z m4945 -4 c153 -28 252 -85 323
-186 80 -115 100 -258 93 -670 -3 -237 -7 -286 -25 -358 -51 -202 -142 -292
-349 -344 -120 -31 -434 -33 -557 -4 -201 47 -312 152 -360 341 -16 61 -19
117 -19 430 -1 322 1 368 18 435 58 230 180 328 458 365 118 16 303 12 418 -9z
m8231 0 c153 -28 274 -106 338 -218 59 -102 66 -163 66 -553 0 -387 -6 -445
-58 -554 -58 -124 -166 -200 -337 -238 -120 -26 -401 -25 -519 1 -200 43 -313
142 -368 321 -16 54 -18 100 -18 465 0 398 0 406 23 470 64 180 195 282 398
309 43 6 93 13 109 15 54 8 288 -4 366 -18z m1414 3 c115 -21 207 -85 249
-172 29 -60 49 -178 44 -257 l-3 -55 -177 -3 -178 -2 -5 27 c-23 112 -37 122
-166 130 -104 6 -196 -8 -230 -36 -40 -32 -38 -162 3 -201 23 -21 20 -21 303
-50 205 -21 273 -34 338 -65 43 -20 103 -84 122 -129 33 -78 45 -312 24 -449
-35 -223 -187 -311 -564 -324 -184 -7 -327 7 -412 38 -68 26 -136 86 -168 150
-35 69 -74 298 -56 328 5 8 55 11 181 9 l174 -3 8 -40 c21 -105 49 -125 179
-133 135 -7 215 4 252 38 30 26 31 31 31 108 1 114 -8 122 -151 135 -356 31
-431 42 -501 78 -51 26 -75 45 -100 83 -55 83 -67 140 -67 326 0 143 3 174 22
236 40 127 144 213 281 233 85 13 499 13 567 0z m-13210 -9 c5 -9 26 -82 100
-355 13 -48 84 -310 200 -735 29 -107 69 -255 89 -328 20 -73 34 -137 31 -142
-4 -6 -80 -10 -184 -10 -140 0 -181 3 -190 14 -6 7 -26 67 -45 132 l-33 119
-250 3 -251 2 -15 -52 c-9 -29 -23 -84 -32 -123 -10 -38 -22 -76 -27 -82 -13
-16 -373 -19 -383 -3 -5 8 24 125 125 500 10 36 30 110 45 165 14 55 33 125
41 155 8 30 24 87 34 125 81 306 160 593 165 608 7 16 30 17 290 17 178 0 286
-4 290 -10z m893 -584 c1 -415 5 -593 13 -603 9 -10 69 -13 289 -13 244 0 279
-2 284 -16 3 -9 6 -87 6 -174 0 -121 -3 -160 -14 -169 -9 -8 -144 -10 -482 -9
l-469 3 -3 788 -2 787 187 -2 188 -3 3 -589z m1100 0 c1 -411 5 -593 13 -602
9 -11 73 -14 293 -16 l281 -3 3 -177 c2 -177 2 -178 -20 -183 -13 -3 -230 -4
-483 -3 l-460 3 -3 775 c-1 426 0 781 3 788 3 10 47 12 187 10 l183 -3 3 -589z
m5874 559 c5 -16 17 -61 27 -100 36 -130 139 -509 206 -755 37 -135 73 -267
80 -295 7 -27 32 -116 54 -197 44 -158 48 -188 29 -188 -71 -3 -361 0 -364 3
-3 2 -20 59 -38 127 -19 67 -40 126 -47 131 -8 5 -118 9 -245 9 -177 0 -234
-3 -242 -13 -6 -7 -16 -33 -22 -57 -29 -119 -47 -181 -57 -191 -8 -8 -249 -15
-372 -10 -9 1 -12 11 -9 34 4 26 82 317 200 747 11 41 26 98 33 125 7 28 45
168 84 312 39 144 71 267 71 273 0 6 7 26 15 45 l14 35 287 -2 288 -3 8 -30z
m888 -525 c5 -512 6 -558 23 -588 29 -53 72 -66 217 -67 135 0 176 12 202 58
10 17 14 146 15 567 2 300 5 555 8 568 l5 22 183 -2 182 -3 0 -610 c0 -652 0
-654 -51 -755 -27 -54 -104 -130 -160 -158 -80 -41 -195 -57 -394 -57 -323 0
-482 55 -553 190 -49 95 -50 111 -54 758 -3 335 -2 615 1 623 5 12 38 14 188
12 l183 -3 5 -555z m2078 386 c2 -116 -1 -173 -9 -182 -9 -11 -49 -14 -184
-14 -148 0 -174 -2 -179 -16 -3 -9 -6 -276 -6 -594 0 -404 -3 -581 -11 -586
-14 -8 -344 -8 -358 1 -8 4 -11 190 -11 589 0 472 -3 586 -13 595 -8 6 -77 12
-178 13 l-164 3 -3 183 -2 182 557 -2 558 -3 3 -169z m-5889 -416 c222 -42
371 -247 470 -645 52 -209 74 -374 75 -560 1 -196 -12 -269 -69 -387 l-26 -53
6 165 c17 465 -78 745 -287 849 -75 38 -133 47 -200 31 -43 -11 -64 -24 -109
-69 -90 -91 -108 -171 -64 -295 13 -39 22 -72 20 -75 -11 -10 -55 43 -76 92
-34 77 -32 173 4 253 67 145 208 216 368 185 33 -7 63 -10 66 -7 4 3 -21 18
-53 33 -52 25 -71 28 -159 28 -89 0 -106 -3 -155 -27 -88 -43 -135 -90 -177
-175 -33 -67 -37 -85 -37 -147 0 -57 6 -81 27 -122 79 -153 253 -205 423 -125
37 17 69 29 72 27 8 -9 -52 -78 -93 -106 -67 -46 -146 -64 -222 -52 -126 21
-208 83 -265 200 -32 65 -33 71 -34 197 0 119 -2 134 -25 175 -22 41 -24 56
-23 160 0 101 3 121 25 165 57 117 139 199 251 250 92 42 174 53 267 35z"/>
<path d="M9171 3208 c-94 -194 -133 -389 -133 -668 0 -198 7 -277 62 -650 21
-146 44 -304 51 -352 6 -49 15 -88 19 -88 10 0 129 158 211 280 138 206 270
514 300 699 22 141 -20 254 -129 348 -220 188 -312 332 -312 490 0 24 -4 43
-10 43 -5 0 -32 -46 -59 -102z"/>
<path d="M6670 2869 c-101 -17 -136 -63 -150 -196 -12 -110 -5 -488 9 -541 27
-97 94 -126 275 -120 129 4 178 22 211 78 19 33 20 52 20 350 0 297 -1 317
-20 349 -29 49 -62 69 -135 81 -75 11 -133 11 -210 -1z"/>
<path d="M14897 2870 c-69 -9 -105 -32 -132 -86 -18 -36 -20 -63 -23 -306 -4
-309 3 -365 52 -414 42 -42 119 -58 247 -52 125 6 165 25 199 93 24 49 24 52
24 335 0 317 -7 359 -63 399 -49 35 -174 48 -304 31z"/>
<path d="M3086 2570 c-43 -170 -76 -316 -73 -322 3 -10 44 -13 161 -12 87 1
160 4 163 8 5 5 -12 78 -116 481 -21 82 -43 151 -48 152 -5 2 -44 -136 -87
-307z"/>
<path d="M11020 2884 c0 -5 -146 -592 -156 -626 -5 -17 7 -18 160 -18 91 0
167 3 170 8 2 4 -20 102 -50 217 -30 116 -66 258 -81 318 -15 59 -30 107 -35
107 -4 0 -8 -3 -8 -6z"/>
<path d="M8184 2512 c-160 -57 -268 -238 -245 -415 l6 -48 53 67 c30 37 60 88
68 113 18 61 66 133 113 170 60 48 117 66 202 66 64 0 85 -5 137 -31 34 -17
62 -27 62 -23 0 16 -80 75 -126 92 -71 27 -205 32 -270 9z"/>
<path d="M8322 2369 c-50 -9 -96 -36 -132 -75 l-25 -27 25 7 c14 4 56 14 95
22 91 20 179 6 280 -45 81 -40 85 -30 14 34 -75 68 -172 99 -257 84z"/>
</g>
</svg>
