<?xml version="1.0" encoding="UTF-8" standalone="no"?>
<svg
   xmlns:dc="http://purl.org/dc/elements/1.1/"
   xmlns:cc="http://creativecommons.org/ns#"
   xmlns:rdf="http://www.w3.org/1999/02/22-rdf-syntax-ns#"
   xmlns:svg="http://www.w3.org/2000/svg"
   xmlns="http://www.w3.org/2000/svg"
   viewBox="0 0 1122.6667 793.33331"
   height="793.33331"
   width="1122.6667"
   xml:space="preserve"
   id="svg2"
   version="1.1"><metadata
     id="metadata8"><rdf:RDF><cc:Work
         rdf:about=""><dc:format>image/svg+xml</dc:format><dc:type
           rdf:resource="http://purl.org/dc/dcmitype/StillImage" /></cc:Work></rdf:RDF></metadata><defs
     id="defs6"><clipPath
       id="clipPath18"
       clipPathUnits="userSpaceOnUse"><path
         id="path16"
         d="M 0,595 H 842 V 0 H 0 Z" /></clipPath></defs><g
     transform="matrix(1.3333333,0,0,-1.3333333,0,793.33333)"
     id="g10"><g
       id="g12"><g
         clip-path="url(#clipPath18)"
         id="g14"><g
           transform="translate(144.0874,378.582)"
           id="g20"><path
             id="path22"
             style="fill:#ed192d;fill-opacity:1;fill-rule:evenodd;stroke:none"
             d="m 0,0 c -36.887,0 -66.79,-29.903 -66.79,-66.788 0,-36.887 29.903,-66.789 66.79,-66.789 36.887,0 66.788,29.902 66.788,66.789 C 66.788,-29.903 36.887,0 0,0 m 0,7.031 c 40.769,0 73.818,-33.05 73.818,-73.819 0,-40.771 -33.049,-73.819 -73.818,-73.819 -40.771,0 -73.821,33.048 -73.821,73.819 0,40.769 33.05,73.819 73.821,73.819" /></g><g
           transform="translate(159.2778,338.7813)"
           id="g24"><path
             id="path26"
             style="fill:#ed192d;fill-opacity:1;fill-rule:evenodd;stroke:none"
             d="m 0,0 c -0.051,0.023 -0.108,0.048 -0.17,0.071 -4.687,1.704 -9.746,2.633 -15.02,2.633 -5.247,0 -10.282,-0.92 -14.95,-2.609 -0.166,-0.061 -0.295,-0.125 -0.392,-0.194 -1.535,-0.724 -2.597,-2.285 -2.597,-4.096 0,-0.961 0.298,-1.851 0.81,-2.584 L -17.23,-32.76 c 0.358,-0.767 1.137,-1.299 2.04,-1.299 0.882,0 1.647,0.509 2.015,1.25 l 15.094,25.99 c 0.537,0.745 0.853,1.658 0.853,2.646 C 2.772,-2.296 1.628,-0.686 0,0 m -44.38,-8.526 c -0.038,-0.027 -0.077,-0.057 -0.12,-0.09 -3.105,-2.609 -5.816,-5.792 -7.961,-9.507 -2.132,-3.696 -3.532,-7.613 -4.241,-11.587 -0.025,-0.143 -0.03,-0.26 -0.023,-0.356 -0.114,-1.377 0.555,-2.759 1.829,-3.497 0.677,-0.389 1.426,-0.541 2.149,-0.477 l 24.431,0.062 c 0.686,-0.061 1.377,0.272 1.744,0.907 0.357,0.623 0.312,1.366 -0.06,1.927 l -12.166,21.199 c -0.308,0.68 -0.821,1.274 -1.515,1.673 -1.323,0.764 -2.922,0.613 -4.067,-0.254 m 58.379,0 C 12.854,-7.659 11.253,-7.508 9.932,-8.272 9.237,-8.671 8.723,-9.265 8.416,-9.945 L -3.75,-31.144 c -0.372,-0.561 -0.418,-1.304 -0.06,-1.927 0.367,-0.635 1.058,-0.968 1.742,-0.907 l 24.432,-0.062 c 0.725,-0.064 1.473,0.088 2.15,0.477 1.274,0.738 1.942,2.12 1.828,3.497 0.01,0.096 0.002,0.213 -0.023,0.356 -0.708,3.974 -2.107,7.891 -4.24,11.587 -2.144,3.715 -4.856,6.898 -7.962,9.507 -0.041,0.033 -0.081,0.063 -0.118,0.09 m -25.566,-32.773 v -22.623 h -7.242 v 22.623 c -3.46,10e-4 -7.977,0.015 -9.686,0.075 l -24.014,-0.058 c -2.034,-0.103 -4.125,0.363 -6.008,1.448 -3.65,2.109 -5.611,5.996 -5.453,9.908 0.004,0.582 0.068,1.086 0.138,1.487 0.855,4.787 2.539,9.504 5.1,13.936 2.572,4.456 5.834,8.291 9.576,11.433 2.512,1.853 6.028,2.784 9.264,2.217 0.914,3.088 3.06,5.642 5.853,7.096 0.53,0.304 1.027,0.514 1.438,0.663 5.443,1.969 11.309,3.04 17.411,3.04 6.131,0 12.026,-1.082 17.495,-3.071 3.146,-1.367 5.951,-4.228 7.126,-7.641 3.091,0.709 6.287,0.02 8.804,-1.89 3.742,-3.143 7.542,-7.391 10.116,-11.847 2.56,-4.432 4.244,-9.149 5.098,-13.936 0.071,-0.401 0.135,-0.905 0.139,-1.487 0.16,-3.912 -1.804,-7.799 -5.454,-9.908 -1.883,-1.085 -3.971,-1.551 -6.006,-1.448 l -24.016,0.058 c -1.708,-0.06 -6.22,-0.074 -9.679,-0.075" /></g><g
           transform="translate(282.0762,350.4487)"
           id="g28"><path
             id="path30"
             style="fill:#ed192d;fill-opacity:1;fill-rule:evenodd;stroke:none"
             d="M 0,0 18.026,-36.91 36.054,0 63.313,-0.002 v -73.82 H 36.054 V -36.91 L 18.026,-73.82 0,-36.91 V -73.819 H -27.259 V 0 Z" /></g><g
           transform="translate(354.1353,276.627)"
           id="g32"><path
             id="path34"
             style="fill:#ed192d;fill-opacity:1;fill-rule:evenodd;stroke:none"
             d="M 0,0 21.203,73.822 H 69.37 L 90.57,0 H 63.313 L 59.832,12.115 H 30.739 L 27.259,0 Z M 45.285,62.768 34.218,24.23 h 22.136 z" /></g><g
           transform="translate(504.4111,350.415)"
           id="g36"><path
             id="path38"
             style="fill:#ed192d;fill-opacity:1;fill-rule:evenodd;stroke:none"
             d="m 0,0 h -51.015 v -73.788 h 27.253 V -43.04 H 0 c 11.885,0 21.519,9.636 21.519,21.521 C 21.519,-9.635 11.885,0 0,0 m -17.387,-8.454 c 6.144,0 12.115,-3.286 12.115,-9.975 0,-6.69 -5.266,-12.113 -12.115,-12.113 h -5.912 v 22.088 z" /></g><g
           transform="translate(535.3828,350.4487)"
           id="g40"><path
             id="path42"
             style="fill:#ed192d;fill-opacity:1;fill-rule:evenodd;stroke:none"
             d="M 0,0 H 72.47 V -12.115 H 27.256 V -30.887 H 72.47 V -43.002 H 27.256 v -30.82 H 0 Z" /></g><g
           transform="translate(727.4063,288.7432)"
           id="g44"><path
             id="path46"
             style="fill:#ed192d;fill-opacity:1;fill-rule:evenodd;stroke:none"
             d="M 0,0 H 45.218 V -12.114 H -27.259 V 61.708 H 45.218 V 49.592 H 0 V 30.82 H 45.218 V 18.705 H 0 Z" /></g><g
           transform="translate(689.9141,295.0781)"
           id="g48"><path
             id="path50"
             style="fill:#ed192d;fill-opacity:1;fill-rule:evenodd;stroke:none"
             d="M 0,0 C 0,0.202 0.007,0.404 0,0.607 -0.321,10.515 -8.463,18.448 -18.449,18.448 -8.26,18.448 0,26.709 0,36.899 0,47.088 -8.26,55.348 -18.449,55.348 H -42.25 -72.525 v -36.9 -36.899 l 27.712,0.002 v 30.56 h 5.909 c 6.68,0 12.114,-5.423 12.114,-12.111 0,-0.199 -0.007,-0.396 -0.016,-0.594 V -18.449 H -18.449 0 Z M 0,0.607 V 0 c 0,0.202 0.007,0.404 0,0.607 m -38.904,46.266 c 5.989,0 12.114,-3.285 12.114,-9.974 0,-6.689 -5.421,-12.11 -12.114,-12.11 h -5.909 v 22.084 z" /></g></g></g></g></svg>