<?xml version="1.0" encoding="UTF-8" standalone="no"?><svg xmlns="http://www.w3.org/2000/svg" xmlns:xlink="http://www.w3.org/1999/xlink" xml:space="preserve" viewBox="0 0 307.077 209.103"><defs><path id="reuse-0" d="M0 841.89h595.28V0H0Z"/></defs><defs><radialGradient id="c" cx="0" cy="0" r="1" fx="-.04" fy="-.012" gradientTransform="matrix(45.92873 0 0 -45.92873 282.347 746.839)" gradientUnits="userSpaceOnUse" spreadMethod="pad"><stop offset="0" stop-color="#00b05a"/><stop offset=".5" stop-color="#00b05a"/><stop offset="1" stop-color="#004e21"/></radialGradient><radialGradient id="e" cx="0" cy="0" r="1" fx="0" fy="0" gradientTransform="matrix(18.76086 0 0 18.76086 291.376 724.656)" gradientUnits="userSpaceOnUse" spreadMethod="pad"><stop offset="0" stop-color="#f36c21"/><stop offset=".681" stop-color="#f36c21"/><stop offset=".835" stop-color="#f36c21"/><stop offset="1" stop-color="#692700"/></radialGradient><radialGradient id="f" cx="0" cy="0" r="1" fx="0" fy="0" gradientTransform="matrix(48.19208 0 0 48.19208 290.425 721.805)" gradientUnits="userSpaceOnUse" spreadMethod="pad"><stop offset="0" stop-color="#088ac4"/><stop offset=".456" stop-color="#088ac4"/><stop offset=".652" stop-color="#088ac4"/><stop offset="1" stop-color="#053451"/></radialGradient><radialGradient id="g" cx="0" cy="0" r="1" fx="0" fy="0" gradientTransform="translate(290.59 721.852) scale(48.39003)" gradientUnits="userSpaceOnUse" spreadMethod="pad"><stop offset="0" stop-color="#007db4"/><stop offset=".456" stop-color="#007db4"/><stop offset=".784" stop-color="#007db4"/><stop offset="1" stop-color="#003351"/></radialGradient><clipPath id="a" clipPathUnits="userSpaceOnUse"><path d="M258.781 737.378a13.12 13.12 0 0 1-.301-.226c-.095-.074-.194-.142-.289-.219h.015c-4.307-3.441-7.033-8.504-7.033-14.153 0-5.422 2.51-10.303 6.516-13.728h-.019a34.743 34.743 0 0 1 14.839-7.578 7.033 7.033 0 0 0-4.792 6.119l-.01.035a34.687 34.687 0 0 0-.333 4.782c0 7.648 2.437 14.916 7.049 21.019l.046.058c.017.026.035.05.052.074.021.03.044.059.066.089l.11.143v-.01c3.609 4.618 9.02 7.264 14.879 7.264 3.562 0 6.897-.991 9.742-2.712a34.645 34.645 0 0 1-19.599 6.052 34.654 34.654 0 0 1-20.938-7.009"/></clipPath><clipPath id="b" clipPathUnits="userSpaceOnUse"><path d="M251.173 744.387h48.145v-42.914h-48.145z"/></clipPath><clipPath id="d" clipPathUnits="userSpaceOnUse"><use xlink:href="#reuse-0"/></clipPath><clipPath id="h" clipPathUnits="userSpaceOnUse"><use xlink:href="#reuse-0"/></clipPath></defs><g clip-path="url(#a)" transform="matrix(1.33333 0 0 -1.33333 -112.337 992.516)"><g clip-path="url(#b)"><path fill="url(#c)" d="M258.781 737.378a13.12 13.12 0 0 1-.301-.226c-.095-.074-.194-.142-.289-.219h.015c-4.307-3.441-7.033-8.504-7.033-14.153 0-5.422 2.51-10.303 6.516-13.728h-.019a34.743 34.743 0 0 1 14.839-7.578 7.033 7.033 0 0 0-4.792 6.119l-.01.035a34.687 34.687 0 0 0-.333 4.782c0 7.648 2.437 14.916 7.049 21.019l.046.058c.017.026.035.05.052.074.021.03.044.059.066.089l.11.143v-.01c3.609 4.618 9.02 7.264 14.879 7.264 3.562 0 6.897-.991 9.742-2.712a34.645 34.645 0 0 1-19.599 6.052 34.654 34.654 0 0 1-20.938-7.009"/></g></g><g clip-path="url(#d)" transform="matrix(1.33333 0 0 -1.33333 -112.337 992.516)"><path fill="#fff" d="M289.576 741.048c-5.858 0-11.27-2.646-14.88-7.267v.012l-.108-.143a5.178 5.178 0 0 1-.067-.089l-.052-.074-.045-.059c-4.613-6.103-7.05-13.37-7.05-21.018 0-1.577.112-3.185.333-4.783l.01-.035a7.034 7.034 0 0 1 5.576-6.335l.049-.016a35.072 35.072 0 0 1 7.114-.735 34.846 34.846 0 0 1 18.135 5.075l.034.022a18.878 18.878 0 0 1 9.828 16.57c0 10.408-8.47 18.875-18.877 18.875"/></g><path fill="url(#e)" d="M274.697 733.783v.01l-1.042-1.423c3.06 3.301 7.956 4.745 12.442 4.745 8.697 0 18.418-7.579 18.418-18.549 0-3.412-.635-9.465-5.797-12.911 6.211 3.341 9.734 10.054 9.734 16.518 0 6.86-3.672 12.852-9.149 16.171l.015-.009-.016.01a18.765 18.765 0 0 1-9.726 2.702c-5.859 0-11.27-2.646-14.879-7.264m24.605 4.562-.005.003.005-.003" transform="matrix(1.33333 0 0 -1.33333 -112.337 992.516)"/><path fill="url(#f)" d="m258.367 737.066.113.086.004.003.011.01v.004l-.128-.103" transform="matrix(1.33333 0 0 -1.33333 -112.337 992.516)"/><path fill="url(#g)" d="M258.198 736.933c-8.107-6.379-13.32-16.271-13.32-27.387 0-19.241 15.6-34.842 34.841-34.842 19.242 0 34.841 15.601 34.841 34.842 0 10.459-4.614 19.832-11.913 26.218 3.573-3.434 5.805-8.254 5.805-13.591 0-.418-.016-.834-.043-1.247-.008-.14-.028-.277-.038-.417-.026-.272-.048-.546-.084-.816-.023-.166-.052-.327-.078-.49-.04-.242-.077-.482-.124-.722-.035-.175-.078-.347-.118-.52-.051-.224-.1-.449-.162-.671a12.566 12.566 0 0 0-.153-.526 14.39 14.39 0 0 0-.199-.639c-.061-.176-.126-.352-.189-.526-.078-.204-.153-.408-.237-.607a14.508 14.508 0 0 0-.227-.524 16.626 16.626 0 0 0-.532-1.095 18.65 18.65 0 0 0-.598-1.055 18.78 18.78 0 0 0-.337-.525 16.149 16.149 0 0 0-.329-.491 31.333 31.333 0 0 0-.73-.969 30.478 30.478 0 0 0-.396-.468c-.132-.154-.261-.305-.396-.454-.139-.149-.284-.295-.426-.44-.142-.145-.28-.291-.427-.432-.146-.142-.304-.276-.457-.414-.148-.135-.298-.273-.452-.403-.161-.136-.333-.264-.498-.394-.156-.123-.309-.249-.469-.366a18.452 18.452 0 0 0-.99-.682c-.371-.237-.75-.463-1.139-.676l-.035-.023a34.844 34.844 0 0 0-18.134-5.075c-2.374 0-4.768.247-7.113.735l-.05.017a6.792 6.792 0 0 0-.786.216c-.35.082-.7.169-1.05.26-.112.033-.226.068-.339.098-.309.086-.618.176-.924.269l-.49.155c-.278.092-.552.186-.825.282-.142.05-.286.097-.424.15-.375.137-.745.28-1.114.431a13.23 13.23 0 0 0-.493.209c-.236.099-.472.203-.707.309-.17.076-.339.152-.509.231-.296.142-.592.286-.883.435a67.12 67.12 0 0 0-.6.312 26.274 26.274 0 0 0-1.201.667c-.206.12-.41.244-.613.367-.16.098-.325.196-.485.297-.314.199-.625.406-.934.614-.172.115-.339.235-.509.355-.176.123-.352.25-.527.378-.171.127-.341.252-.511.381-.195.149-.386.299-.577.451-.124.099-.251.193-.372.293h.005c-.255.208-.506.419-.754.634h.019l-.009.007c-.131.109-.255.227-.38.342-.125.113-.252.221-.373.338-.126.121-.248.244-.371.366-.115.116-.234.231-.346.351-.12.125-.234.254-.349.383-.11.12-.22.241-.327.365-.11.132-.218.266-.326.398-.103.128-.207.255-.308.383-.103.137-.204.274-.301.412-.098.133-.195.265-.287.402-.095.14-.187.28-.279.42-.09.142-.181.28-.268.423-.086.143-.167.288-.252.431a15.62 15.62 0 0 0-.246.441c-.076.145-.152.29-.227.437a22.053 22.053 0 0 0-.422.904c-.07.16-.134.322-.199.483-.059.147-.118.296-.173.444-.061.169-.117.336-.174.506a13.783 13.783 0 0 0-.294.975c-.04.148-.081.294-.115.444-.046.183-.085.371-.123.557-.031.146-.063.291-.089.435-.035.198-.063.398-.092.599-.02.137-.043.273-.06.411-.027.225-.044.454-.063.682-.009.115-.024.23-.03.345-.02.347-.033.694-.033 1.044 0 .357.013.712.033 1.063.008.127.024.252.034.375.018.225.035.451.063.672.017.154.046.306.07.457.027.192.052.383.087.572.032.166.071.329.106.493.036.173.07.347.112.518.042.174.094.343.142.513.045.159.086.32.132.476.057.179.121.354.181.532.051.145.097.292.15.433.07.184.147.365.223.545.054.134.106.267.164.397.081.187.171.372.262.552.058.121.114.245.175.366.095.188.199.371.302.556.062.11.122.224.186.333.111.188.225.37.342.554.065.102.129.208.195.309.123.186.252.369.381.548.068.095.134.19.203.284.136.183.277.361.421.54.07.086.138.176.209.262.149.179.302.352.457.526l.218.243c.159.171.324.343.49.51.074.075.149.152.227.226.171.164.343.326.519.487.08.072.158.146.24.216.177.155.361.307.546.459.055.045.107.092.163.136zm14.307-35.459h.001z" transform="matrix(1.33333 0 0 -1.33333 -112.337 992.516)"/><g clip-path="url(#h)" transform="matrix(1.33333 0 0 -1.33333 -112.337 992.516)"><path fill="#00a3d8" d="M97.665 638.476c-1.676-.96-2.908-1.916-3.695-2.854-.298 1.285-1.023 2.198-2.17 2.744-1.145.542-2.54.813-4.184.813-.547 0-1.019-.013-1.422-.036a11.955 11.955 0 0 1-1.045-.108c-.349-.057-.646-.102-.897-.152V587.64s10.09-1.145 10.09 5.187v13.43c.095-.15.343-.422.733-.816.397-.398.963-.79 1.7-1.187.744-.397 1.641-.753 2.703-1.074 1.06-.323 2.302-.485 3.732-.485 1.723 0 3.447.298 5.174.892 1.726.594 3.291 1.616 4.691 3.08 1.408 1.455 2.554 3.434 3.438 5.93.89 2.497 1.336 5.672 1.336 9.525 0 3.311-.385 6.11-1.15 8.381-.764 2.273-1.786 4.104-3.065 5.49-1.282 1.38-2.749 2.384-4.4 3.002-1.65.62-3.386.928-5.213.928-2.56 0-4.68-.48-6.356-1.447m-1.152-27.03c-1.005.546-1.706 1.017-2.099 1.407v15.722c0 .94.401 1.804 1.216 2.595.81.792 2.246 1.184 4.312 1.184 1.377 0 2.543-.253 3.5-.775a5.912 5.912 0 0 0 2.288-2.186c.566-.94.971-2.05 1.217-3.334.247-1.29.372-2.67.372-4.157 0-3.56-.595-6.327-1.769-8.305-1.182-1.975-3.026-2.966-5.533-2.966-1.328 0-2.497.272-3.504.815M132.828 639.442c-1.736-.325-3.268-.742-4.602-1.261-1.336-.522-2.384-1.102-3.15-1.74-.766-.647-1.147-1.316-1.147-2.004 0-.498.206-1.252.629-2.263.42-1.015 1.489-2.325 2.693-1.76 1.79.842 1.143.625 3.038 1.31 2.174.79 4.344 1.08 6.469 1.08 2.273 0 3.914-.398 4.93-1.203 1.012-.796 1.519-2.15 1.519-4.05v-1.35h-1.596c-.568 0-1.144-.023-1.74-.072-1.78-.098-3.733-.321-5.86-.666-2.125-.347-4.104-.97-5.931-1.884a12.927 12.927 0 0 1-4.561-3.732c-1.212-1.578-1.82-3.622-1.82-6.135 0-2.02.347-3.737 1.039-5.138.694-1.404 1.582-2.53 2.672-3.365a10.4 10.4 0 0 1 3.632-1.807 14.75 14.75 0 0 1 4.005-.556c2.57 0 4.748.396 6.529 1.184 1.775.793 3.21 1.757 4.297 2.895.248-1.29.827-2.275 1.743-2.965.916-.696 2.26-1.04 4.043-1.04.839 0 1.642.073 2.409.22.767.147 1.596.398 2.486.742-1.14 1.78-1.706 4.622-1.706 8.53v13.943c0 2.27-.25 4.262-.745 5.965-.494 1.706-1.322 3.13-2.482 4.268-1.161 1.134-2.67 1.973-4.52 2.518-1.86.544-4.12.817-6.79.817a30.09 30.09 0 0 1-5.483-.481m-.447-28.48c-.791.966-1.188 2.14-1.188 3.528 0 1.23.297 2.25.893 3.037.59.789 1.357 1.434 2.299 1.928.939.493 2.012.84 3.222 1.038 1.213.196 2.436.344 3.672.443.345.052.692.076 1.04.076h1.04v-7.562c0-.394-.185-.83-.56-1.298-.37-.473-.875-.903-1.52-1.3-.643-.396-1.385-.713-2.225-.96a9.247 9.247 0 0 0-2.67-.375c-1.88 0-3.21.484-4.003 1.445M169.593 639.143c-2.049-.52-3.993-1.47-5.818-2.856-1.83-1.381-3.362-3.261-4.6-5.633-1.234-2.373-1.855-5.437-1.855-9.198 0-3.952.596-7.153 1.781-9.6 1.185-2.452 2.671-4.366 4.448-5.748 1.78-1.385 3.71-2.325 5.788-2.821 2.073-.49 4.004-.737 5.781-.737 2.672 0 4.87.296 6.601.89 1.73.59 3.065 1.233 4.005 1.924.64.492 1.06.978 1.26 1.447a3.7 3.7 0 0 1 .297 1.443c0 .799-.286 1.756-.852 2.896-.572 1.136-1.125 2.004-1.67 2.595-.247-.295-.617-.655-1.112-1.074-.49-.424-1.089-.815-1.78-1.19a11.977 11.977 0 0 0-2.374-.926c-.887-.245-1.879-.367-2.964-.367-1.683 0-3.09.294-4.229.889a7.513 7.513 0 0 0-2.776 2.447c-.72 1.035-1.228 2.25-1.523 3.632-.297 1.388-.443 2.868-.443 4.449 0 3.114.69 5.673 2.07 7.67 1.39 2.007 3.713 3.008 6.973 3.008 1.881 0 3.586-.42 5.118-1.257 1.532-.846 2.697-1.685 3.485-2.522a11.54 11.54 0 0 1 1.703 2.778c.45 1.016.67 1.867.67 2.558 0 .74-.185 1.387-.558 1.929-.369.542-1.026 1.11-1.964 1.707-1.135.743-2.569 1.33-4.298 1.778-1.73.445-3.61.67-5.639.67-1.63 0-3.47-.26-5.525-.781M193.064 639.069c-.744-.074-1.114-.136-1.114-.186V609.22c0-1.236.161-2.25.481-3.04.321-.792.768-1.42 1.336-1.892.568-.467 1.25-.788 2.043-.958.789-.176 1.68-.265 2.668-.265.787 0 1.531.023 2.225.075.694.046 1.134.123 1.333.224v29.955c0 1.235-.199 2.24-.593 3.007-.393.764-.918 1.36-1.554 1.782a6.004 6.004 0 0 1-2.155.85c-.789.147-1.582.22-2.371.22-.793 0-1.558-.036-2.299-.11M215.31 654.234c-2.762-1.83-4.494-4.423-5.186-7.786-.304-1.581-.45-3.338-.45-5.261v-37.822s10.085-.82 10.085 5.856v22.25h2.502c8.592 0 9.067 6.417 9.067 6.417V609.22c0-1.237.195-2.25.593-3.04.393-.792.912-1.42 1.557-1.892a5.621 5.621 0 0 1 2.15-.958 10.907 10.907 0 0 1 2.373-.265c.788 0 1.56.038 2.297.114.744.074 1.113.134 1.113.185v35.74H219.76v2.45c0 2.915.625 4.905 1.891 5.969 1.258 1.06 3.076 1.596 5.446 1.596 2.082 0 3.974-.334 5.68-1.002 1.706-.667 2.98-1.422 3.817-2.261.69.783 1.285 1.703 1.776 2.743.5 1.039.746 1.978.746 2.815 0 1.387-.889 2.547-2.672 3.482-1.283.699-2.866 1.22-4.744 1.563-1.878.345-3.76.516-5.638.516-4.4 0-7.983-.915-10.75-2.742M258.832 639.143c-2.05-.52-3.992-1.47-5.823-2.856-1.828-1.381-3.36-3.261-4.596-5.633-1.236-2.373-1.853-5.437-1.853-9.198 0-3.952.591-7.153 1.777-9.6 1.187-2.452 2.67-4.366 4.451-5.748 1.777-1.385 3.705-2.325 5.784-2.821 2.077-.49 4.002-.737 5.786-.737 2.666 0 4.866.296 6.601.89 1.727.59 3.06 1.233 4.002 1.924.642.492 1.065.978 1.261 1.447.197.47.293.954.293 1.443 0 .799-.283 1.756-.854 2.896-.566 1.136-1.12 2.004-1.666 2.595-.247-.295-.617-.655-1.113-1.074-.492-.424-1.086-.815-1.777-1.19a12.145 12.145 0 0 0-2.375-.926c-.89-.245-1.874-.367-2.96-.367-1.684 0-3.096.294-4.23.889a7.561 7.561 0 0 0-2.785 2.447c-.717 1.035-1.22 2.25-1.518 3.632a21.28 21.28 0 0 0-.447 4.449c0 3.114.697 5.673 2.08 7.67 1.383 2.007 3.704 3.008 6.971 3.008 1.875 0 3.582-.42 5.118-1.257 1.528-.846 2.69-1.685 3.482-2.522a11.64 11.64 0 0 1 1.705 2.778c.447 1.016.668 1.867.668 2.558 0 .74-.184 1.387-.558 1.929-.37.542-1.022 1.11-1.961 1.707-1.138.743-2.57 1.33-4.301 1.778-1.735.445-3.608.67-5.636.67-1.634 0-3.475-.26-5.526-.781M289.623 638.442c-2.221-.992-4.06-2.34-5.512-4.046-1.455-1.706-2.554-3.681-3.295-5.933-.738-2.245-1.111-4.631-1.111-7.151 0-2.476.324-4.835.965-7.085.639-2.25 1.65-4.226 3.033-5.931 1.377-1.706 3.17-3.07 5.363-4.08 2.194-1.015 4.87-1.521 8.028-1.521 3.16 0 5.847.52 8.068 1.559 2.219 1.034 4.029 2.425 5.436 4.152 1.405 1.733 2.418 3.73 3.037 6.007.619 2.274.926 4.646.926 7.118 0 2.47-.307 4.824-.926 7.044-.62 2.228-1.605 4.179-2.961 5.862-1.356 1.679-3.133 3.013-5.326 4.005-2.2.988-4.85 1.48-7.952 1.48-2.962 0-5.554-.492-7.773-1.48m3.914-27.214c-.967.638-1.72 1.49-2.265 2.555-.54 1.062-.924 2.262-1.147 3.598a24 24 0 0 0-.338 4.003c0 1.335.129 2.646.375 3.929.246 1.288.654 2.433 1.224 3.446a7.08 7.08 0 0 0 2.296 2.485c.964.645 2.166.965 3.6.965 1.433 0 2.614-.306 3.56-.927a6.779 6.779 0 0 0 2.224-2.407c.542-.992.91-2.141 1.113-3.45.195-1.31.29-2.633.29-3.97 0-1.38-.095-2.741-.29-4.074-.202-1.336-.571-2.536-1.113-3.598-.547-1.064-1.298-1.917-2.261-2.555-.967-.65-2.192-.965-3.672-.965-1.436 0-2.633.316-3.596.965M199.023 656.096a5.64 5.64 0 0 1-4.477-2.186v.002l-.033-.043c-.008-.01-.013-.018-.02-.025a.106.106 0 0 0-.017-.023l-.012-.018a10.406 10.406 0 0 1-2.122-6.323c0-.476.034-.96.1-1.44l.003-.011a2.12 2.12 0 0 1 1.678-1.906l.014-.004a10.482 10.482 0 0 1 7.598 1.306l.009.006a5.677 5.677 0 0 1 2.958 4.985 5.686 5.686 0 0 1-5.68 5.68"/></g></svg>