<?xml version="1.0" encoding="UTF-8"?>
<svg xmlns="http://www.w3.org/2000/svg" xmlns:xlink="http://www.w3.org/1999/xlink" width="612pt" height="792pt" viewBox="0 0 612 792" version="1.1">
<g id="surface1">
<path style=" stroke:none;fill-rule:nonzero;fill:rgb(94.099426%,31.399536%,17.999268%);fill-opacity:1;" d="M 421.394531 522.476563 C 448.195313 522.878906 471.894531 522.378906 492.296875 521.078125 L 499.296875 480.078125 C 387.496094 497.976563 286.394531 498.175781 195.996094 480.578125 C 164.097656 474.476563 135.296875 466.277344 109.394531 456.277344 C 90.597656 448.976563 76.195313 441.878906 66.296875 435.078125 C 119.597656 475.675781 199.597656 502.277344 306.597656 514.976563 C 343.394531 519.277344 381.597656 521.777344 421.394531 522.476563 "/>
<path style=" stroke:none;fill-rule:nonzero;fill:rgb(9.399414%,7.499695%,25.498962%);fill-opacity:1;" d="M 510.695313 371.777344 C 509.695313 367.976563 506.894531 366.175781 502.296875 366.175781 C 494.695313 366.175781 489.996094 366.175781 488.097656 366.277344 C 483.097656 366.476563 479.195313 367.175781 476.296875 368.175781 L 471.296875 377.175781 L 478.394531 374.578125 C 483.796875 372.976563 488.195313 372.277344 491.796875 372.675781 C 495.894531 372.976563 498.097656 374.277344 498.195313 376.578125 C 498.195313 378.777344 496.296875 380.976563 492.394531 382.878906 C 490.695313 383.777344 488.597656 384.476563 485.894531 384.878906 C 482.695313 385.277344 480.394531 385.675781 478.695313 385.878906 C 472.496094 386.777344 467.296875 388.976563 463.195313 392.476563 C 461.195313 394.277344 459.695313 396.277344 458.597656 398.476563 C 457.394531 401.078125 456.996094 403.378906 457.597656 405.476563 C 458.894531 410.777344 465.597656 413.078125 477.296875 412.078125 L 483.296875 405.078125 C 481.195313 405.777344 478.996094 406.078125 476.894531 406.078125 C 472.597656 406.277344 470.394531 404.878906 470.296875 402.078125 C 470.195313 399.175781 471.597656 396.878906 474.394531 395.277344 C 475.894531 394.476563 478.796875 393.378906 483.296875 392.175781 C 487.394531 390.878906 490.996094 389.878906 494.195313 388.976563 L 490.394531 399.277344 C 487.597656 406.378906 485.597656 410.277344 484.394531 411.078125 L 497.894531 411.078125 C 503.195313 397.578125 507.097656 388.277344 509.296875 383.175781 C 511.195313 378.777344 511.695313 374.878906 510.695313 371.777344 "/>
<path style=" stroke:none;fill-rule:nonzero;fill:rgb(9.399414%,7.499695%,25.498962%);fill-opacity:1;" d="M 431.296875 366.175781 L 418.296875 366.175781 C 419.195313 396.476563 419.894531 411.476563 420.296875 411.078125 C 420.496094 410.878906 422.894531 410.777344 427.496094 410.878906 C 429.796875 410.976563 432.097656 410.976563 434.296875 411.078125 L 469.296875 366.175781 L 456.296875 366.175781 L 431.296875 401.078125 L 431.296875 366.175781 "/>
<path style=" stroke:none;fill-rule:nonzero;fill:rgb(9.399414%,7.499695%,25.498962%);fill-opacity:1;" d="M 418.695313 359.578125 L 422.097656 351.078125 L 408.695313 351.078125 L 405.894531 359.578125 L 418.695313 359.578125 "/>
<path style=" stroke:none;fill-rule:nonzero;fill:rgb(9.399414%,7.499695%,25.498962%);fill-opacity:1;" d="M 364.695313 359.578125 L 368.097656 351.078125 L 354.695313 351.078125 L 351.894531 359.578125 L 364.695313 359.578125 "/>
<path style=" stroke:none;fill-rule:nonzero;fill:rgb(9.399414%,7.499695%,25.498962%);fill-opacity:1;" d="M 375.296875 366.175781 L 368.296875 366.175781 L 364.496094 375.675781 L 371.195313 375.675781 L 369.195313 381.078125 C 367.695313 385.277344 366.394531 388.675781 365.195313 391.476563 C 362.894531 397.277344 361.496094 400.777344 361.195313 401.976563 C 360.195313 405.878906 360.695313 408.777344 362.796875 410.476563 C 364.394531 411.777344 367.894531 412.175781 373.296875 411.777344 C 376.097656 411.476563 378.597656 411.078125 380.996094 410.578125 L 385.695313 402.078125 C 383.894531 402.878906 381.394531 403.578125 378.496094 403.878906 C 376.394531 404.175781 375.296875 402.777344 375.097656 399.878906 C 374.796875 397.277344 375.296875 394.175781 376.597656 390.777344 C 377.496094 388.277344 378.894531 384.976563 380.695313 380.878906 L 383.195313 375.476563 L 395.195313 375.476563 L 398.296875 366.175781 L 386.296875 366.175781 L 390.296875 356.175781 L 377.394531 359.078125 L 375.296875 366.175781 "/>
<path style=" stroke:none;fill-rule:nonzero;fill:rgb(9.399414%,7.499695%,25.498962%);fill-opacity:1;" d="M 338.894531 370.777344 L 339.394531 367.578125 C 338.394531 367.378906 337.097656 367.175781 335.394531 366.878906 C 332.195313 366.476563 328.894531 366.277344 325.695313 366.277344 C 321.394531 366.277344 317.597656 367.078125 314.496094 368.675781 C 310.597656 370.578125 307.695313 373.476563 305.894531 377.578125 C 304.496094 380.777344 304.796875 384.078125 306.996094 387.277344 C 308.097656 388.976563 310.796875 391.777344 315.097656 395.378906 C 316.894531 397.078125 317.195313 399.078125 315.996094 401.476563 C 314.695313 404.078125 312.394531 405.476563 308.996094 405.675781 C 305.394531 405.878906 302.195313 405.378906 299.394531 404.078125 L 296.097656 402.175781 L 293.996094 410.675781 L 298.894531 411.976563 C 302.597656 412.878906 305.695313 413.277344 308.296875 413.078125 C 313.296875 412.777344 317.597656 411.777344 321.097656 410.175781 C 326.597656 407.777344 329.695313 403.976563 330.296875 398.878906 C 330.894531 394.777344 328.894531 390.976563 324.597656 387.476563 C 322.296875 385.675781 320.894531 384.378906 320.394531 383.777344 C 319.195313 382.277344 318.894531 380.777344 319.296875 379.175781 C 320.097656 375.878906 322.996094 374.277344 327.894531 374.277344 C 332.296875 374.277344 335.394531 375.175781 337.296875 377.175781 C 337.894531 375.378906 338.394531 373.277344 338.894531 370.777344 "/>
<path style=" stroke:none;fill-rule:nonzero;fill:rgb(9.399414%,7.499695%,25.498962%);fill-opacity:1;" d="M 348.894531 366.175781 C 348.597656 368.578125 346.394531 375.277344 342.597656 386.078125 C 338.394531 397.878906 334.894531 406.277344 332.394531 411.078125 L 345.796875 411.078125 L 362.296875 366.175781 L 348.894531 366.175781 "/>
<path style=" stroke:none;fill-rule:nonzero;fill:rgb(9.399414%,7.499695%,25.498962%);fill-opacity:1;" d="M 416.296875 366.175781 L 402.894531 366.175781 C 402.597656 368.578125 400.394531 375.277344 396.597656 386.078125 C 392.394531 397.878906 388.894531 406.277344 386.394531 411.078125 L 399.796875 411.078125 L 416.296875 366.175781 "/>
<path style=" stroke:none;fill-rule:nonzero;fill:rgb(9.399414%,7.499695%,25.498962%);fill-opacity:1;" d="M 280.195313 366.175781 C 274.097656 366.175781 268.996094 366.878906 265.097656 368.476563 C 259.894531 370.476563 255.195313 374.277344 251.097656 379.777344 C 245.296875 387.277344 242.996094 394.476563 244.097656 401.277344 C 245.394531 409.175781 251.496094 413.078125 262.296875 413.078125 C 273.097656 413.078125 281.796875 409.476563 288.597656 402.277344 C 294.195313 396.277344 297.097656 389.476563 297.296875 382.175781 C 297.496094 371.476563 291.796875 366.175781 280.195313 366.175781 Z M 268.496094 376.175781 C 270.894531 375.078125 273.695313 374.476563 276.996094 374.476563 C 279.894531 374.476563 282.097656 375.277344 283.394531 376.777344 C 284.695313 378.378906 285.296875 381.175781 284.996094 384.976563 C 284.597656 389.675781 282.597656 393.976563 279.097656 398.277344 C 274.894531 403.078125 270.097656 405.476563 264.597656 405.476563 C 259.195313 405.476563 256.394531 402.777344 255.996094 397.578125 C 255.597656 392.878906 256.996094 388.277344 260.195313 383.476563 C 262.597656 379.976563 265.296875 377.578125 268.496094 376.175781 "/>
<path style=" stroke:none;fill-rule:nonzero;fill:rgb(9.399414%,7.499695%,25.498962%);fill-opacity:1;" d="M 210.296875 351.175781 C 209.996094 353.777344 206.195313 364.578125 198.996094 383.476563 C 195.394531 392.976563 191.894531 402.175781 188.296875 411.078125 L 202.296875 411.078125 C 202.296875 410.378906 204.496094 403.777344 208.894531 391.175781 C 213.894531 376.976563 216.996094 366.976563 218.394531 360.976563 L 231.296875 361.175781 C 234.597656 361.175781 236.695313 361.878906 237.496094 363.476563 C 238.097656 364.777344 237.996094 366.578125 236.894531 369.078125 C 235.695313 371.777344 233.796875 374.078125 230.996094 375.777344 C 228.394531 377.378906 225.894531 378.175781 223.296875 378.175781 L 216.296875 378.175781 L 215.296875 386.175781 L 218.597656 386.675781 C 221.296875 386.976563 224.195313 387.175781 227.296875 387.175781 C 233.097656 387.175781 238.496094 384.378906 243.394531 378.777344 C 247.394531 374.378906 249.894531 369.878906 251.097656 365.378906 C 251.996094 361.878906 251.394531 358.675781 249.296875 355.777344 C 247.097656 352.675781 244.097656 351.175781 240.296875 351.175781 L 210.296875 351.175781 "/>
<path style=" stroke:none;fill-rule:nonzero;fill:rgb(9.399414%,7.499695%,25.498962%);fill-opacity:1;" d="M 94.398438 373.777344 C 97.195313 365.976563 99.796875 358.378906 102.296875 351.175781 L 87.996094 351.175781 C 83.597656 364.777344 78.195313 378.777344 72.097656 393.378906 C 69.097656 400.578125 66.398438 406.578125 64.296875 411.078125 L 108.296875 411.078125 L 112.296875 402.078125 L 83.296875 402.078125 C 85.097656 398.976563 88.695313 389.578125 94.398438 373.777344 "/>
<path style=" stroke:none;fill-rule:nonzero;fill:rgb(9.399414%,7.499695%,25.498962%);fill-opacity:1;" d="M 146.097656 366.277344 C 141.097656 366.476563 137.097656 367.175781 134.296875 368.175781 L 129.296875 377.175781 L 136.296875 374.578125 C 141.796875 372.976563 146.296875 372.277344 149.796875 372.675781 C 153.996094 372.976563 156.097656 374.277344 156.097656 376.578125 C 156.195313 378.777344 154.296875 380.976563 150.496094 382.878906 C 148.695313 383.777344 146.597656 384.476563 143.894531 384.878906 C 140.796875 385.277344 138.394531 385.675781 136.796875 385.878906 C 130.496094 386.777344 125.296875 388.976563 121.195313 392.476563 C 119.195313 394.277344 117.695313 396.277344 116.597656 398.476563 C 115.296875 401.078125 114.996094 403.378906 115.597656 405.476563 C 116.894531 410.777344 123.597656 413.078125 135.296875 412.078125 L 141.296875 405.078125 C 139.097656 405.777344 136.996094 406.078125 134.796875 406.078125 C 130.597656 406.277344 128.296875 404.878906 128.296875 402.078125 C 128.195313 399.175781 129.597656 396.878906 132.496094 395.277344 C 133.796875 394.476563 136.796875 393.378906 141.296875 392.175781 C 145.296875 390.878906 148.996094 389.878906 152.296875 388.976563 L 148.394531 399.277344 C 145.597656 406.378906 143.597656 410.277344 142.394531 411.078125 L 155.796875 411.078125 C 161.296875 397.578125 165.097656 388.277344 167.296875 383.175781 C 169.097656 378.777344 169.597656 374.878906 168.695313 371.777344 C 167.597656 367.976563 164.894531 366.175781 160.296875 366.175781 C 152.796875 366.175781 147.996094 366.175781 146.097656 366.277344 "/>
<path style=" stroke:none;fill-rule:nonzero;fill:rgb(9.399414%,7.499695%,25.498962%);fill-opacity:1;" d="M 391.894531 444.078125 C 392.894531 442.078125 393.894531 440.175781 394.894531 438.378906 C 392.195313 438.078125 388.894531 437.878906 385.097656 437.777344 C 379.195313 437.675781 373.796875 440.277344 368.996094 445.675781 C 366.394531 448.578125 365.296875 451.675781 365.695313 454.976563 C 365.996094 458.175781 367.394531 459.777344 369.996094 459.777344 C 374.695313 459.777344 378.597656 458.378906 381.597656 455.578125 C 379.394531 460.175781 377.597656 463.078125 376.097656 464.175781 C 375.097656 464.976563 372.894531 465.378906 369.796875 465.476563 C 367.695313 465.476563 365.695313 465.277344 364.097656 464.777344 L 362.296875 464.078125 L 361.597656 467.578125 L 363.394531 468.277344 C 364.894531 468.777344 366.796875 469.078125 368.894531 469.078125 C 371.394531 469.078125 373.195313 468.976563 374.097656 468.777344 C 375.894531 468.476563 377.695313 467.675781 379.597656 466.476563 C 381.394531 465.277344 383.097656 463.175781 384.597656 460.175781 C 385.996094 456.578125 386.996094 454.175781 387.597656 452.777344 C 388.394531 451.175781 389.695313 448.277344 391.894531 444.078125 Z M 383.195313 442.078125 C 384.496094 442.078125 385.695313 442.078125 386.894531 442.277344 C 385.394531 446.078125 383.894531 449.378906 382.097656 452.078125 C 380.695313 453.976563 378.695313 455.078125 375.894531 455.277344 C 373.195313 455.578125 371.695313 454.878906 371.195313 453.277344 C 370.695313 451.878906 371.195313 450.078125 372.496094 448.078125 C 373.695313 446.277344 375.195313 444.777344 377.097656 443.476563 C 378.394531 442.578125 380.394531 442.078125 383.195313 442.078125 "/>
<path style=" stroke:none;fill-rule:nonzero;fill:rgb(9.399414%,7.499695%,25.498962%);fill-opacity:1;" d="M 407.597656 438.078125 L 400.597656 438.078125 C 398.894531 442.675781 396.996094 446.976563 394.695313 450.976563 C 393.097656 453.878906 392.796875 456.277344 393.894531 457.878906 C 394.894531 459.476563 396.894531 460.175781 399.894531 460.175781 C 402.394531 460.175781 404.695313 459.476563 407.097656 457.777344 C 408.195313 456.878906 409.195313 456.078125 409.894531 455.277344 L 408.195313 459.476563 L 414.496094 459.578125 C 414.796875 456.078125 415.394531 453.078125 416.195313 450.777344 C 416.597656 449.277344 417.894531 446.777344 419.996094 443.078125 C 421.097656 441.277344 421.996094 439.675781 422.894531 438.078125 L 416.695313 438.078125 L 416.394531 439.878906 C 415.894531 441.578125 415.097656 443.578125 413.695313 446.078125 C 411.597656 449.878906 410.394531 452.078125 409.996094 452.578125 C 408.394531 454.675781 406.195313 455.777344 403.695313 455.777344 C 401.796875 455.777344 400.695313 455.078125 400.394531 453.675781 C 400.195313 452.578125 400.394531 450.878906 401.195313 448.578125 C 401.796875 446.878906 403.097656 444.578125 404.894531 441.777344 C 405.894531 440.378906 406.695313 439.175781 407.597656 438.078125 "/>
<path style=" stroke:none;fill-rule:nonzero;fill:rgb(9.399414%,7.499695%,25.498962%);fill-opacity:1;" d="M 356.695313 437.578125 C 350.695313 437.578125 346.097656 439.976563 342.695313 444.878906 C 341.195313 446.878906 340.394531 448.976563 339.894531 451.078125 C 339.496094 453.277344 339.695313 454.878906 340.394531 456.277344 C 341.394531 458.277344 343.296875 459.476563 345.894531 459.878906 C 347.695313 460.078125 350.695313 460.078125 354.894531 459.578125 L 358.296875 455.277344 C 356.597656 455.675781 354.796875 455.878906 352.894531 456.078125 C 349.195313 456.378906 346.894531 456.078125 346.097656 454.878906 C 345.195313 453.777344 345.097656 452.378906 345.597656 450.675781 L 346.597656 448.378906 L 363.195313 448.578125 C 364.097656 446.675781 364.394531 444.878906 364.394531 443.078125 C 364.195313 439.378906 361.597656 437.578125 356.695313 437.578125 Z M 349.996094 443.578125 C 352.195313 441.976563 354.394531 441.078125 356.296875 441.078125 C 358.195313 441.078125 359.195313 441.878906 359.394531 443.578125 C 359.597656 444.378906 359.394531 445.175781 359.195313 445.976563 L 347.296875 446.078125 L 349.996094 443.578125 "/>
<path style=" stroke:none;fill-rule:nonzero;fill:rgb(9.399414%,7.499695%,25.498962%);fill-opacity:1;" d="M 340.296875 436.078125 L 342.296875 431.078125 C 340.195313 430.578125 337.796875 430.378906 335.195313 430.578125 C 330.195313 430.777344 326.597656 432.378906 324.597656 435.578125 C 323.097656 438.078125 322.496094 440.078125 322.894531 441.675781 C 323.296875 442.976563 324.695313 444.578125 326.996094 446.277344 C 328.894531 447.777344 329.796875 449.378906 329.695313 451.277344 C 329.695313 453.578125 327.894531 454.878906 324.195313 455.476563 C 321.894531 455.777344 319.894531 455.675781 318.097656 455.078125 L 316.097656 453.976563 L 314.097656 458.777344 L 318.195313 459.675781 C 321.394531 460.277344 324.097656 460.277344 326.394531 459.878906 C 329.097656 459.277344 331.195313 458.175781 332.894531 456.578125 C 334.597656 454.878906 335.597656 452.777344 335.894531 450.277344 C 336.195313 448.578125 334.894531 446.578125 332.195313 444.078125 C 329.695313 441.777344 328.695313 439.777344 329.296875 438.078125 C 330.097656 435.976563 331.894531 434.878906 334.796875 434.777344 C 337.296875 434.777344 339.195313 435.175781 340.296875 436.078125 "/>
<path style=" stroke:none;fill-rule:nonzero;fill:rgb(9.399414%,7.499695%,25.498962%);fill-opacity:1;" d="M 481.695313 441.578125 C 483.597656 441.777344 484.894531 442.277344 485.894531 442.976563 L 487.695313 438.777344 C 485.796875 438.175781 483.695313 437.777344 481.394531 437.777344 C 476.796875 437.578125 473.695313 438.878906 472.097656 441.578125 C 470.894531 443.578125 470.597656 445.277344 471.097656 446.578125 C 471.394531 447.378906 472.296875 448.476563 473.695313 449.777344 C 475.195313 451.175781 475.894531 452.378906 475.796875 453.378906 C 475.695313 454.878906 474.296875 455.777344 471.394531 456.378906 C 469.597656 456.777344 467.894531 456.578125 466.496094 455.878906 L 464.894531 454.878906 L 463.296875 458.976563 L 466.796875 459.578125 C 469.394531 459.976563 471.695313 459.976563 473.597656 459.578125 C 475.894531 459.078125 477.695313 458.277344 478.894531 457.078125 C 480.296875 455.976563 481.097656 454.277344 481.394531 452.277344 C 481.597656 450.878906 480.796875 449.277344 479.097656 447.675781 C 477.394531 446.078125 476.894531 444.675781 477.394531 443.277344 C 477.894531 441.878906 479.394531 441.277344 481.695313 441.578125 "/>
<path style=" stroke:none;fill-rule:nonzero;fill:rgb(9.399414%,7.499695%,25.498962%);fill-opacity:1;" d="M 434.597656 438.078125 L 428.695313 438.078125 C 428.496094 440.078125 427.695313 442.476563 426.195313 445.277344 C 425.394531 446.777344 424.195313 449.078125 422.597656 452.378906 C 420.894531 455.878906 419.894531 458.078125 419.296875 459.078125 L 426.296875 459.078125 C 426.597656 456.777344 426.996094 454.878906 427.597656 453.277344 C 428.195313 451.675781 429.097656 449.878906 430.195313 448.078125 C 431.695313 445.578125 433.195313 444.078125 434.496094 443.378906 C 435.695313 442.777344 437.195313 442.578125 438.894531 442.777344 C 439.796875 442.878906 440.496094 443.078125 441.097656 443.277344 L 442.894531 437.777344 C 441.894531 437.777344 440.695313 437.878906 439.296875 438.277344 C 436.597656 438.878906 434.496094 440.078125 433.097656 441.878906 L 434.597656 438.078125 "/>
<path style=" stroke:none;fill-rule:nonzero;fill:rgb(9.399414%,7.499695%,25.498962%);fill-opacity:1;" d="M 449.695313 438.878906 C 447.695313 439.777344 445.597656 441.378906 443.097656 443.777344 C 439.894531 446.976563 438.496094 450.378906 439.097656 454.175781 C 439.597656 458.078125 442.097656 460.078125 446.597656 460.078125 C 450.097656 460.078125 453.097656 459.277344 455.597656 457.777344 C 457.894531 456.378906 460.097656 454.078125 462.195313 450.777344 C 464.195313 447.578125 464.796875 444.578125 463.796875 441.878906 C 462.695313 439.175781 460.496094 437.777344 457.097656 437.777344 C 453.996094 437.777344 451.597656 438.175781 449.695313 438.878906 Z M 447.394531 445.476563 C 449.097656 443.777344 450.496094 442.578125 451.796875 442.078125 C 452.695313 441.777344 454.195313 441.578125 456.296875 441.578125 C 457.695313 441.578125 458.394531 442.476563 458.695313 444.277344 C 458.996094 446.078125 458.695313 447.878906 457.695313 449.578125 C 455.195313 454.078125 452.097656 456.277344 448.394531 456.277344 C 445.695313 456.277344 444.394531 454.878906 444.496094 452.175781 C 444.597656 449.777344 445.597656 447.578125 447.394531 445.476563 "/>
</g>
</svg>
