<?xml version="1.0" encoding="UTF-8" standalone="no"?>
<svg
   xmlns:dc="http://purl.org/dc/elements/1.1/"
   xmlns:cc="http://creativecommons.org/ns#"
   xmlns:rdf="http://www.w3.org/1999/02/22-rdf-syntax-ns#"
   xmlns:svg="http://www.w3.org/2000/svg"
   xmlns="http://www.w3.org/2000/svg"
   viewBox="0 0 264.56799 340.15732"
   height="340.15732"
   width="264.56799"
   xml:space="preserve"
   id="svg2"
   version="1.1"><metadata
     id="metadata8"><rdf:RDF><cc:Work
         rdf:about=""><dc:format>image/svg+xml</dc:format><dc:type
           rdf:resource="http://purl.org/dc/dcmitype/StillImage" /></cc:Work></rdf:RDF></metadata><defs
     id="defs6"><clipPath
       id="clipPath20"
       clipPathUnits="userSpaceOnUse"><path
         id="path18"
         d="M 0,255.118 H 198.426 V 0 H 0 Z" /></clipPath></defs><g
     transform="matrix(1.3333333,0,0,-1.3333333,0,340.15733)"
     id="g10"><path
       id="path12"
       style="fill:#ffffff;fill-opacity:1;fill-rule:nonzero;stroke:none"
       d="M 184.252,14.173 H 14.173 v 226.771 h 170.079 z" /><g
       id="g14"><g
         clip-path="url(#clipPath20)"
         id="g16"><g
           transform="translate(142.6411,132.6821)"
           id="g22"><path
             id="path24"
             style="fill:#952f87;fill-opacity:1;fill-rule:nonzero;stroke:none"
             d="m 0,0 c -3.15,-0.639 -5.102,-2.36 -14.719,-5.267 -9.312,-2.365 -25.33,-1.707 -38.147,3.87 -9.908,4.123 -24.879,10.526 -24.879,10.526 l -10.505,4.686 -2.164,-6.882 c 0,0 16.495,-6.25 29.72,-15.005 5.992,-3.965 22.577,-14.384 22.577,-14.384 0,0 7.884,-5.745 11.476,-5.721 3.123,0.054 5.746,3.369 9.909,7.345 5.087,4.547 7.414,7.097 12.953,11.643 3.689,3.293 5.566,5.009 6.011,5.805 C 3.301,-1.463 1.803,0.361 0,0" /></g><path
           id="path26"
           style="fill:#952f87;fill-opacity:1;fill-rule:nonzero;stroke:none"
           d="m 37.915,85.718 h -4.296 v 4.292 h 4.296 z" /><path
           id="path28"
           style="fill:#952f87;fill-opacity:1;fill-rule:nonzero;stroke:none"
           d="m 48.397,85.718 h -4.292 v 4.292 h 4.292 z" /><path
           id="path30"
           style="fill:#952f87;fill-opacity:1;fill-rule:nonzero;stroke:none"
           d="m 58.881,85.718 h -4.288 v 4.292 h 4.288 z" /><path
           id="path32"
           style="fill:#952f87;fill-opacity:1;fill-rule:nonzero;stroke:none"
           d="m 69.365,85.718 h -4.291 v 4.292 h 4.291 z" /><path
           id="path34"
           style="fill:#952f87;fill-opacity:1;fill-rule:nonzero;stroke:none"
           d="M 79.851,85.718 H 75.56 v 4.292 h 4.291 z" /><path
           id="path36"
           style="fill:#952f87;fill-opacity:1;fill-rule:nonzero;stroke:none"
           d="M 90.34,85.718 H 86.048 V 90.01 H 90.34 Z" /><path
           id="path38"
           style="fill:#952f87;fill-opacity:1;fill-rule:nonzero;stroke:none"
           d="m 100.823,85.718 h -4.291 v 4.292 h 4.291 z" /><path
           id="path40"
           style="fill:#952f87;fill-opacity:1;fill-rule:nonzero;stroke:none"
           d="m 111.308,85.718 h -4.29 v 4.292 h 4.29 z" /><path
           id="path42"
           style="fill:#952f87;fill-opacity:1;fill-rule:nonzero;stroke:none"
           d="m 121.795,85.718 h -4.291 v 4.292 h 4.291 z" /><path
           id="path44"
           style="fill:#952f87;fill-opacity:1;fill-rule:nonzero;stroke:none"
           d="m 132.28,85.718 h -4.291 v 4.292 h 4.291 z" /><path
           id="path46"
           style="fill:#952f87;fill-opacity:1;fill-rule:nonzero;stroke:none"
           d="m 142.762,85.718 h -4.289 v 4.292 h 4.289 z" /><path
           id="path48"
           style="fill:#952f87;fill-opacity:1;fill-rule:nonzero;stroke:none"
           d="m 153.256,85.718 h -4.293 v 4.292 h 4.293 z" /><path
           id="path50"
           style="fill:#952f87;fill-opacity:1;fill-rule:nonzero;stroke:none"
           d="m 163.762,85.711 h -4.291 v 4.294 h 4.291 z" /><path
           id="path52"
           style="fill:#952f87;fill-opacity:1;fill-rule:nonzero;stroke:none"
           d="M 159.481,98.514 H 37.897 V 220.098 H 159.481 Z M 33.618,94.24 H 163.756 V 224.374 H 33.618 Z" /><g
           transform="translate(144.0181,176.5625)"
           id="g54"><path
             id="path56"
             style="fill:#952f87;fill-opacity:1;fill-rule:nonzero;stroke:none"
             d="M 0,0 C 0.014,16.818 -11.398,37.215 -44.677,37.602 -74.055,36.809 -89.333,20.737 -89.321,-0.037 -88.525,-29.68 -61.878,-37.633 -44.642,-37.63 -16.398,-37.618 0.77,-21.222 0,0 m -44.74,-30.243 c -8.991,-0.004 -23.299,4.062 -23.299,30.313 -0.003,16.75 6.552,29.941 23.283,30.341 18.668,-0.384 23.299,-13.015 23.305,-30.326 0.402,-17.094 -5.582,-30.711 -23.289,-30.328" /></g><g
           transform="translate(49.7095,39.8477)"
           id="g58"><path
             id="path60"
             style="fill:#0098b2;fill-opacity:1;fill-rule:nonzero;stroke:none"
             d="m 0,0 c 2.901,-3.407 4.629,-4.084 9.717,-4.417 3.929,0.057 5.309,0.712 9.242,3.269 0,0 0.731,0.354 1.194,-0.03 0.489,-0.416 0.144,-1.212 0.144,-1.212 C 19.343,-3.842 16.414,-8.675 10.048,-9.093 7.17,-9.3 2.741,-6.754 0.916,-5.101 c -1.831,1.641 -2.613,3.06 -3.922,4.914 -6.011,0.57 -6.997,2.85 -8.088,4.051 -1.584,1.76 -2.823,3.95 -3.703,6.545 -0.872,2.591 -1.308,5.656 -1.308,9.194 -0.005,5.583 1.272,10.198 3.831,13.879 2.552,3.693 5.636,5.535 9.281,5.534 3.433,0 6.409,-1.841 8.937,-5.537 C 8.485,29.789 9.747,25.132 9.755,19.503 9.753,14.935 8.978,10.736 7.167,7.292 5.373,3.866 3.573,1.466 0,0 m -3.229,36.922 c -2.354,-0.01 -4.262,-1.203 -5.711,-3.593 -1.825,-2.984 -2.796,-7.695 -2.796,-13.858 0.006,-6.041 0.809,-10.441 2.674,-13.694 1.435,-2.515 3.62,-4.225 5.968,-4.225 2.433,0 4.45,1.759 5.956,4.274 1.746,2.97 2.463,7.18 2.46,12.978 -0.007,4.464 -0.495,8.227 -1.454,11.256 -0.76,2.363 -1.732,4.076 -2.96,5.197 -1.236,1.109 -2.605,1.659 -4.137,1.665" /></g><g
           transform="translate(77.3066,65.9658)"
           id="g62"><path
             id="path64"
             style="fill:#0098b2;fill-opacity:1;fill-rule:nonzero;stroke:none"
             d="m 0,0 0.007,-15.351 c -0.004,-2.875 0.049,-4.651 0.137,-5.286 0.111,-0.639 0.232,-1.089 0.443,-1.352 0.277,-0.348 0.27,-0.566 0.72,-0.781 0.544,-0.274 0.847,-0.149 1.298,0.165 l 0.337,-0.938 -5.166,-2.45 h -0.849 l 0.06,4.65 c -1.441,-2.317 -2.353,-3.472 -3.119,-4.084 -0.748,-0.592 -1.032,-0.879 -2.509,-0.882 -0.94,0 -1.881,0.72 -2.587,1.549 -0.699,0.807 -1.183,1.855 -1.456,3.137 -0.264,1.298 -0.386,3.114 -0.39,5.466 v 11.244 c -0.003,1.207 -0.08,2.033 -0.264,2.502 -0.195,0.463 -0.438,0.811 -0.768,1.062 -0.337,0.269 -0.953,0.372 -1.841,0.362 V 0 l 5.942,-0.005 0.006,-16.916 c 0,-2.343 0.265,-3.901 0.824,-4.646 0.534,-0.723 1.24,-1.365 2.008,-1.365 0.529,0 1.3,0.203 1.978,0.71 0.647,0.493 1.142,0.946 2.081,2.542 l 0.025,14.89 c 0,1.467 -0.16,2.457 -0.518,2.971 -0.348,0.507 -1.059,0.798 -2.183,0.833 l -0.011,0.982 z" /></g><g
           transform="translate(92.8203,43.8369)"
           id="g66"><path
             id="path68"
             style="fill:#0098b2;fill-opacity:1;fill-rule:nonzero;stroke:none"
             d="m 0,0 c -1.861,-2.013 -3.041,-3.175 -3.51,-3.479 -0.736,-0.473 -1.509,-0.701 -2.312,-0.701 -1.275,0 -2.324,0.598 -3.138,1.798 -0.818,1.188 -1.19,2.319 -1.19,4.26 0,1.242 0.395,2.762 0.803,3.644 0.537,1.258 1.649,2.375 2.998,3.487 1.356,1.094 3.152,2.286 6.29,3.857 v 1.163 c -0.007,2.495 -0.318,4.312 -0.668,5.356 -0.35,1.125 -1.458,1.592 -2.566,1.592 -0.843,-0.006 -1.586,-0.418 -2.075,-1.042 -0.506,-0.624 -0.762,-1.619 -0.758,-2.418 l 0.028,-1.602 c 0.003,-0.828 -0.045,-1.044 -0.353,-1.503 -0.317,-0.462 -0.733,-0.686 -1.247,-0.687 -0.494,0.004 -0.896,0.238 -1.211,0.714 -0.305,0.467 -0.543,1.131 -0.504,1.95 0.107,1.832 0.519,2.601 1.691,3.901 1.174,1.323 2.816,1.98 4.937,1.983 1.63,0 2.597,-0.536 3.645,-1.297 0.778,-0.561 1.358,-1.79 1.649,-3.255 C 2.662,16.916 2.84,15.748 2.846,13.3 L 2.849,4.737 c 0,-2.412 0.022,-3.884 0.088,-4.426 0.085,-0.535 0.19,-0.908 0.341,-1.091 0.6,-0.581 1.204,-0.581 2.19,0.52 L 5.921,-0.941 C 4.431,-3.676 3.539,-4.17 2.188,-4.17 1.52,-4.176 0.995,-3.854 0.619,-3.241 0.225,-2.597 0.016,-1.527 0,0 m -0.004,1.78 -0.002,9.591 C -2.005,10.259 -3.318,9.475 -3.897,9.019 -4.959,8.217 -5.697,7.384 -6.161,6.496 -6.611,5.621 -6.844,4.67 -6.851,3.615 c 0.004,-1.311 0.293,-2.42 0.866,-3.28 0.591,-0.87 1.246,-1.305 1.978,-1.308 1.018,0.003 2.362,0.925 4.003,2.753" /></g><g
           transform="translate(144.0122,43.8389)"
           id="g70"><path
             id="path72"
             style="fill:#0098b2;fill-opacity:1;fill-rule:nonzero;stroke:none"
             d="m 0,0 c -1.852,-2.028 -3.031,-3.17 -3.521,-3.485 -0.708,-0.47 -1.475,-0.693 -2.305,-0.697 -1.268,0.003 -2.313,0.599 -3.117,1.786 -0.83,1.19 -1.205,2.328 -1.205,4.266 -0.006,1.239 0.418,2.743 0.812,3.65 0.531,1.25 1.652,2.371 3,3.48 1.359,1.103 3.135,2.281 6.291,3.866 l -0.006,1.158 c -0.006,2.501 -0.324,4.307 -0.646,5.353 -0.348,1.113 -1.475,1.595 -2.594,1.602 -0.82,-0.005 -1.576,-0.43 -2.064,-1.053 -0.489,-0.62 -0.745,-1.62 -0.745,-2.419 l 0.024,-1.603 c -0.002,-0.838 -0.055,-1.03 -0.375,-1.487 -0.317,-0.471 -0.727,-0.696 -1.219,-0.694 -0.514,-0.003 -0.912,0.244 -1.213,0.714 -0.322,0.482 -0.566,1.128 -0.515,1.958 0.097,1.826 0.507,2.568 1.691,3.9 1.168,1.318 2.807,1.981 4.939,1.976 1.623,0 2.592,-0.542 3.643,-1.294 C 1.648,20.419 2.227,19.173 2.523,17.72 2.689,16.907 2.85,15.728 2.85,13.291 L 2.857,4.712 c 0,-2.399 0.03,-3.871 0.11,-4.413 0.06,-0.534 0.166,-0.9 0.32,-1.08 0.615,-0.596 1.201,-0.592 2.195,0.514 L 5.934,-0.948 C 4.434,-3.696 3.539,-4.178 2.201,-4.179 1.516,-4.178 1.008,-3.861 0.619,-3.243 0.236,-2.604 0.027,-1.52 0,0 M 0.002,1.766 0,11.35 C -1.998,10.257 -3.313,9.478 -3.906,9.017 -4.955,8.213 -5.695,7.37 -6.156,6.496 -6.611,5.612 -6.832,4.654 -6.832,3.608 c 0,-1.311 0.283,-2.415 0.865,-3.268 0.572,-0.872 1.221,-1.308 1.977,-1.308 1.027,0 2.342,0.92 3.992,2.734" /></g><g
           transform="translate(106.356,78.7852)"
           id="g74"><path
             id="path76"
             style="fill:#0098b2;fill-opacity:1;fill-rule:nonzero;stroke:none"
             d="m 0,0 0.013,-33.454 c 0.007,-1.572 0.071,-2.614 0.243,-3.129 0.164,-0.51 0.432,-0.892 0.775,-1.15 0.362,-0.281 1.006,-0.406 1.979,-0.406 l -0.006,-0.986 -9.136,-0.003 0.002,0.991 c 0.845,-0.002 1.437,0.118 1.755,0.36 0.311,0.227 0.553,0.634 0.73,1.168 0.176,0.55 0.276,1.596 0.276,3.155 l -0.019,22.893 c 0.007,2.83 -0.171,6.672 -0.38,6.922 -0.181,0.527 -0.769,0.919 -2.402,0.134 l -0.334,0.874 5.574,2.63 z" /></g><g
           transform="translate(116.9263,65.3447)"
           id="g78"><path
             id="path80"
             style="fill:#0098b2;fill-opacity:1;fill-rule:nonzero;stroke:none"
             d="m 0,0 0.01,-20.073 c 0,-1.558 0.07,-2.586 0.217,-3.102 0.162,-0.512 0.4,-0.884 0.699,-1.155 0.301,-0.248 0.857,-0.373 1.685,-0.373 l 0.002,-0.978 -8.455,-0.007 v 0.985 c 0.851,-0.003 1.421,0.112 1.705,0.366 0.299,0.227 0.522,0.609 0.692,1.146 0.181,0.538 0.279,1.585 0.267,3.118 v 9.609 c 0,2.718 -0.051,4.465 -0.171,5.261 -0.112,0.585 -0.242,0.997 -0.436,1.218 -0.187,0.225 -0.454,0.337 -0.773,0.341 -0.34,0 -0.784,-0.135 -1.291,-0.419 l -0.262,0.996 5.265,3.064 z m -1.57,13.068 c 0.521,0.004 0.968,-0.265 1.359,-0.804 C 0.162,11.722 0.346,11.075 0.35,10.314 0.346,9.544 0.158,8.888 -0.211,8.328 -0.602,7.79 -1.039,7.527 -1.566,7.524 -2.093,7.527 -2.545,7.79 -2.941,8.333 c -0.352,0.552 -0.561,1.211 -0.564,1.983 0.003,0.759 0.192,1.405 0.555,1.945 0.374,0.542 0.835,0.807 1.38,0.807" /></g><g
           transform="translate(127.3638,73.4189)"
           id="g82"><path
             id="path84"
             style="fill:#0098b2;fill-opacity:1;fill-rule:nonzero;stroke:none"
             d="m 0,0 v -7.68 l 4.045,0.002 0.006,-1.475 -4.045,-0.076 v -16.73 c 0.002,-1.623 0.088,-2.441 0.265,-3.483 0.096,-0.646 0.749,-1.583 1.676,-1.541 0.885,0 1.932,1.252 2.147,1.989 h 0.769 c -0.457,-1.79 -2.144,-5.027 -4.664,-4.751 -2.248,0.073 -2.939,1.988 -3.103,3.188 -0.125,0.912 -0.237,2.172 -0.237,4.006 l -0.011,17.398 -2.356,-0.003 -0.006,0.48 c 0.701,0.402 1.043,1.086 1.764,2.044 0.721,0.95 1.367,2.086 1.934,3.412 0.291,0.702 0.72,1.373 1.252,3.22 z" /></g><g
           transform="translate(162.481,66.2012)"
           id="g86"><path
             id="path88"
             style="fill:#0098b2;fill-opacity:1;fill-rule:nonzero;stroke:none"
             d="m 0,0 v -8.242 h -0.391 c -0.457,2.694 -1.246,4.706 -1.957,5.679 -0.716,0.969 -1.685,1.375 -2.795,1.375 -0.828,0 -1.558,-0.655 -2.078,-1.336 -0.515,-0.675 -0.769,-1.413 -0.771,-2.24 0,-1.023 0.158,-1.904 0.549,-2.633 0.369,-0.757 1.213,-1.645 2.412,-2.62 l 2.826,-2.328 c 2.486,-1.814 3.457,-3.6 3.461,-6.551 -0.004,-2.301 -0.578,-4.149 -1.735,-5.549 -1.15,-1.405 -2.431,-2.099 -3.863,-2.099 -1.029,-0.006 -2.205,0.245 -3.535,0.786 -0.4,0.159 -0.732,0.254 -0.994,0.254 -0.277,0.001 -0.488,-0.216 -0.641,-0.651 h -0.642 v 9.004 l 0.468,0.002 c 0.331,-2.58 0.86,-5 1.825,-6.307 0.957,-1.307 2.318,-1.744 3.504,-1.742 0.843,0 1.759,0.418 2.304,1.152 0.535,0.743 0.592,1.874 0.592,2.915 0,1.273 -0.287,2.321 -0.879,3.188 -0.601,0.866 -1.779,1.941 -3.572,3.267 -1.752,1.311 -2.918,2.508 -3.484,3.575 -0.542,1.037 -0.819,2.37 -0.819,3.955 0,2.066 0.379,3.519 1.299,4.916 0.945,1.391 1.551,2.009 3.445,2.265 1.305,0.155 1.778,-0.102 2.707,-0.527 0.621,-0.288 1.764,-0.44 1.885,-0.301 0.117,0.115 0.252,0.265 0.277,0.813 z" /></g><g
           transform="translate(165.7505,41.957)"
           id="g90"><path
             id="path92"
             style="fill:#0098b2;fill-opacity:1;fill-rule:nonzero;stroke:none"
             d="M 0,0 C 0.764,0 1.49,-0.185 2.211,-0.573 2.914,-0.954 3.475,-1.502 3.863,-2.21 4.256,-2.922 4.467,-3.673 4.463,-4.439 4.467,-5.218 4.262,-5.939 3.887,-6.644 3.492,-7.361 2.939,-7.906 2.229,-8.304 1.531,-8.69 0.795,-8.888 0.01,-8.89 c -0.76,0.004 -1.5,0.2 -2.207,0.591 -0.709,0.387 -1.26,0.938 -1.645,1.644 -0.412,0.707 -0.59,1.437 -0.597,2.213 -0.008,0.769 0.189,1.512 0.597,2.232 0.404,0.708 0.955,1.256 1.664,1.637 C -1.467,-0.187 -0.734,0 0,0 m 0,-0.739 c -0.617,0 -1.217,-0.159 -1.807,-0.482 -0.603,-0.315 -1.062,-0.776 -1.396,-1.368 -0.32,-0.595 -0.494,-1.219 -0.494,-1.856 0,-0.638 0.166,-1.252 0.486,-1.836 0.342,-0.582 0.789,-1.045 1.379,-1.371 0.584,-0.323 1.199,-0.488 1.838,-0.481 0.644,-0.003 1.256,0.155 1.851,0.481 0.596,0.332 1.057,0.789 1.385,1.377 0.321,0.585 0.477,1.196 0.477,1.837 -0.006,0.636 -0.162,1.257 -0.5,1.854 C 2.896,-1.995 2.428,-1.531 1.832,-1.219 1.229,-0.898 0.631,-0.741 0,-0.739" /></g><g
           transform="translate(163.8071,35.0576)"
           id="g94"><path
             id="path96"
             style="fill:#0098b2;fill-opacity:1;fill-rule:nonzero;stroke:none"
             d="M 0,0 -0.006,4.773 1.645,4.769 c 0.57,0 0.976,-0.04 1.224,-0.128 C 3.113,4.55 3.318,4.401 3.475,4.172 3.621,3.959 3.695,3.728 3.695,3.479 3.695,3.131 3.578,2.825 3.32,2.562 3.068,2.302 2.742,2.165 2.326,2.131 2.498,2.055 2.627,1.972 2.738,1.873 2.924,1.682 3.158,1.377 3.439,0.936 L 4.031,-0.002 3.074,0 2.652,0.749 C 2.318,1.344 2.045,1.707 1.842,1.863 1.707,1.972 1.49,2.022 1.221,2.024 H 0.764 L 0.766,0.002 Z m 0.764,2.685 h 0.957 c 0.451,0 0.756,0.072 0.918,0.204 0.175,0.134 0.248,0.315 0.248,0.535 0,0.139 -0.028,0.266 -0.106,0.375 C 2.699,3.909 2.582,3.993 2.441,4.052 2.305,4.097 2.031,4.128 1.658,4.13 H 0.766 Z" /></g><g
           transform="translate(89.3306,72.1309)"
           id="g98"><path
             id="path100"
             style="fill:#0098b2;fill-opacity:1;fill-rule:nonzero;stroke:none"
             d="m 0,0 c -1.188,-1.559 -2.132,-2.726 -1.591,-3.073 0.611,-0.286 1.151,0.261 1.871,0.787 0.717,0.543 1.97,1.95 3.377,3.192 C 5.036,2.179 7.679,4.794 6.344,5.978 4.796,7.333 4.356,6.464 2.885,4.024 2.525,3.464 1.178,1.545 0,0" /></g></g></g></g></svg>